<svg width="16" height="16" viewBox="0 0 16 16" fill="none" xmlns="http://www.w3.org/2000/svg">
<path d="M8.45833 0.643189C8.15773 0.572632 7.84488 0.572632 7.54428 0.643189C7.2009 0.723788 6.89568 0.922778 6.54841 1.14918C5.04947 2.12352 3.54893 3.09546 2.05086 4.07115C1.82322 4.21942 1.70939 4.29355 1.66974 4.38776C1.63509 4.47005 1.63493 4.56293 1.66929 4.64535C1.70862 4.73969 1.82225 4.81426 2.0495 4.96339L7.19663 8.34119C7.66311 8.64732 7.76107 8.7001 7.84785 8.72063C7.94878 8.74451 8.05388 8.74451 8.15481 8.72063C8.24159 8.7001 8.33955 8.64732 8.80603 8.3412L13.9531 4.96341C14.1804 4.81427 14.294 4.73971 14.3333 4.64536C14.3677 4.56295 14.3675 4.47007 14.3329 4.38777C14.2932 4.29357 14.1794 4.21944 13.9518 4.07117C12.4537 3.09547 10.9532 2.1235 9.4542 1.14919C9.10693 0.92278 8.80171 0.723788 8.45833 0.643189Z" fill="#12B76A"/>
<path d="M15.3323 6.63979C15.3321 6.3193 15.3319 6.15906 15.2649 6.07008C15.2064 5.99256 15.1171 5.94437 15.0202 5.93812C14.909 5.93094 14.7748 6.01899 14.5064 6.1951L11.4141 8.22443C11.217 8.35378 11.1185 8.41845 11.0784 8.50331C11.0433 8.57766 11.0369 8.66237 11.0605 8.74115C11.0873 8.83106 11.1751 8.90979 11.3505 9.06725L14.9519 12.2992C15.0841 12.4179 15.2907 12.345 15.3052 12.1679C15.3347 11.8071 15.3346 11.3642 15.3346 10.8276C15.3346 9.69065 15.3333 7.79365 15.3323 6.63979Z" fill="#12B76A"/>
<path d="M14.2296 14.1616C14.3515 14.0735 14.4124 14.0295 14.4489 13.9457C14.4771 13.8806 14.4824 13.7807 14.4612 13.7131C14.4338 13.6258 14.3661 13.565 14.2306 13.4434L9.87581 9.53532C9.87303 9.53282 9.87164 9.53157 9.87039 9.53047C9.75864 9.43219 9.59529 9.41989 9.47009 9.50032C9.46868 9.50123 9.46712 9.50225 9.464 9.5043C9.11466 9.73425 8.80767 9.93632 8.46177 10.0182C8.15899 10.0898 7.84367 10.0898 7.54089 10.0182C7.19499 9.93632 6.88798 9.73424 6.53865 9.5043C6.53546 9.5022 6.53387 9.50116 6.53243 9.50023C6.40726 9.41986 6.24397 9.43215 6.13224 9.53037C6.13096 9.5315 6.12954 9.53277 6.1267 9.53532L1.77201 13.4434C1.63651 13.565 1.56875 13.6258 1.54139 13.713C1.52016 13.7807 1.52544 13.8806 1.5537 13.9456C1.59012 14.0295 1.65107 14.0735 1.77297 14.1616C1.88377 14.2416 2.00107 14.3134 2.12399 14.376C2.44755 14.5409 2.79202 14.6066 3.16675 14.6372C3.52755 14.6667 3.97045 14.6667 4.50709 14.6667H11.4955C12.0322 14.6667 12.4751 14.6667 12.8359 14.6372C13.2106 14.6066 13.5551 14.5409 13.8786 14.376C14.0015 14.3134 14.1188 14.2417 14.2296 14.1616Z" fill="#12B76A"/>
<path d="M0.697432 12.1679C0.711895 12.3449 0.9185 12.4178 1.05069 12.2992L4.65205 9.0672C4.82751 8.90973 4.91524 8.831 4.94212 8.7411C4.96568 8.66232 4.95929 8.57761 4.92417 8.50325C4.8841 8.4184 4.78555 8.35373 4.58844 8.22438L1.49616 6.19507C1.22781 6.01896 1.09363 5.9309 0.98243 5.93808C0.885546 5.94434 0.796192 5.99253 0.737744 6.07005C0.670661 6.15903 0.670531 6.31927 0.670273 6.63976C0.669343 7.79362 0.667969 9.69063 0.667969 10.8276C0.667961 11.3642 0.667954 11.8071 0.697432 12.1679Z" fill="#12B76A"/>
</svg>
