<svg width="16" height="16" viewBox="0 0 16 16" fill="none" xmlns="http://www.w3.org/2000/svg">
<path d="M14.3964 0.971649C14.1325 0.883506 13.8869 0.947248 13.7648 0.982722C13.6317 1.02138 13.4731 1.08331 13.3139 1.14544L2.0092 5.55704C1.83131 5.62644 1.65901 5.69365 1.52603 5.75941C1.41113 5.81622 1.1669 5.94268 1.03058 6.20508C0.880241 6.49446 0.880444 6.83896 1.03112 7.12816C1.16775 7.3904 1.41213 7.51657 1.5271 7.57325C1.66015 7.63885 1.8325 7.70585 2.01046 7.77503L5.15715 8.99873C5.39189 9.09002 5.50927 9.13567 5.62604 9.13847C5.72925 9.14095 5.83163 9.11942 5.9251 9.07559C6.03085 9.026 6.1199 8.93694 6.298 8.75884L9.52827 5.52858C9.78862 5.26823 10.2107 5.26823 10.4711 5.52858C10.7314 5.78892 10.7314 6.21103 10.4711 6.47138L7.24081 9.70165C7.06271 9.87975 6.97366 9.96881 6.92407 10.0746C6.88023 10.168 6.8587 10.2704 6.86118 10.3736C6.86398 10.4904 6.90963 10.6078 7.00092 10.8425L8.22461 13.9891C8.29379 14.1671 8.3608 14.3395 8.4264 14.4726C8.48308 14.5875 8.60925 14.8319 8.8715 14.9685C9.16069 15.1192 9.5052 15.1194 9.79457 14.9691C10.057 14.8328 10.1834 14.5885 10.2402 14.4736C10.306 14.3406 10.3732 14.1684 10.4426 13.9905L14.8542 2.68572C14.9163 2.52658 14.9783 2.36797 15.0169 2.23488C15.0524 2.11275 15.1161 1.86711 15.028 1.60327C14.9284 1.30517 14.6945 1.07123 14.3964 0.971649Z" fill="#9E77ED"/>
</svg>
