<svg width="16" height="16" viewBox="0 0 16 16" fill="none" xmlns="http://www.w3.org/2000/svg">
<path opacity="0.12" d="M9.22599 8.4768C8.78521 8.78535 8.56482 8.93962 8.3251 8.99938C8.11334 9.05216 7.89187 9.05216 7.68011 8.99938C7.44039 8.93962 7.22 8.78535 6.77922 8.4768L1.33594 4.6665C1.33594 3.56193 2.23137 2.6665 3.33594 2.6665H12.6693C13.7738 2.6665 14.6693 3.56193 14.6693 4.6665L9.22599 8.4768Z" fill="#5D6B98"/>
<path d="M14.3359 11.9998L9.90737 7.99984M6.09784 7.99984L1.66929 11.9998M1.33594 4.6665L6.77922 8.4768C7.22 8.78535 7.44039 8.93962 7.68011 8.99938C7.89187 9.05216 8.11334 9.05216 8.3251 8.99938C8.56482 8.93962 8.78521 8.78535 9.22599 8.4768L14.6693 4.6665M4.53594 13.3332H11.4693C12.5894 13.3332 13.1494 13.3332 13.5773 13.1152C13.9536 12.9234 14.2595 12.6175 14.4513 12.2412C14.6693 11.8133 14.6693 11.2533 14.6693 10.1332V5.8665C14.6693 4.7464 14.6693 4.18635 14.4513 3.75852C14.2595 3.3822 13.9536 3.07624 13.5773 2.88449C13.1494 2.6665 12.5894 2.6665 11.4693 2.6665H4.53594C3.41583 2.6665 2.85578 2.6665 2.42796 2.88449C2.05163 3.07624 1.74567 3.3822 1.55392 3.75852C1.33594 4.18635 1.33594 4.7464 1.33594 5.8665V10.1332C1.33594 11.2533 1.33594 11.8133 1.55392 12.2412C1.74567 12.6175 2.05163 12.9234 2.42796 13.1152C2.85578 13.3332 3.41583 13.3332 4.53594 13.3332Z" stroke="#5D6B98" stroke-width="1.4" stroke-linecap="round" stroke-linejoin="round"/>
</svg>
