<svg width="42" height="42" viewBox="0 0 42 42" fill="none" xmlns="http://www.w3.org/2000/svg">
<circle cx="21" cy="21" r="21" fill="#FCFCFC"/>
<path opacity="0.12" d="M11 20.2C11 19.0799 11 18.5198 11.218 18.092C11.4097 17.7157 11.7157 17.4097 12.092 17.218C12.5198 17 13.0799 17 14.2 17H21.8C22.9201 17 23.4802 17 23.908 17.218C24.2843 17.4097 24.5903 17.7157 24.782 18.092C25 18.5198 25 19.0799 25 20.2V27.8C25 28.9201 25 29.4802 24.782 29.908C24.5903 30.2843 24.2843 30.5903 23.908 30.782C23.4802 31 22.9201 31 21.8 31H14.2C13.0799 31 12.5198 31 12.092 30.782C11.7157 30.5903 11.4097 30.2843 11.218 29.908C11 29.4802 11 28.9201 11 27.8V20.2Z" fill="#51525C"/>
<path d="M17 17V14.2C17 13.0799 17 12.5198 17.218 12.092C17.4097 11.7157 17.7157 11.4097 18.092 11.218C18.5198 11 19.0799 11 20.2 11H27.8C28.9201 11 29.4802 11 29.908 11.218C30.2843 11.4097 30.5903 11.7157 30.782 12.092C31 12.5198 31 13.0799 31 14.2V21.8C31 22.9201 31 23.4802 30.782 23.908C30.5903 24.2843 30.2843 24.5903 29.908 24.782C29.4802 25 28.9201 25 27.8 25H25M14.2 31H21.8C22.9201 31 23.4802 31 23.908 30.782C24.2843 30.5903 24.5903 30.2843 24.782 29.908C25 29.4802 25 28.9201 25 27.8V20.2C25 19.0799 25 18.5198 24.782 18.092C24.5903 17.7157 24.2843 17.4097 23.908 17.218C23.4802 17 22.9201 17 21.8 17H14.2C13.0799 17 12.5198 17 12.092 17.218C11.7157 17.4097 11.4097 17.7157 11.218 18.092C11 18.5198 11 19.0799 11 20.2V27.8C11 28.9201 11 29.4802 11.218 29.908C11.4097 30.2843 11.7157 30.5903 12.092 30.782C12.5198 31 13.0799 31 14.2 31Z" stroke="#51525C" stroke-width="1.6" stroke-linecap="round" stroke-linejoin="round"/>
</svg>
