<svg width="16" height="16" viewBox="0 0 16 16" fill="none" xmlns="http://www.w3.org/2000/svg">
<g clip-path="url(#clip0_124_23411)">
<path opacity="0.4" d="M5.33398 5.33331V3.46665C5.33398 2.71991 5.33398 2.34654 5.47931 2.06133C5.60714 1.81044 5.81111 1.60647 6.062 1.47864C6.34721 1.33331 6.72058 1.33331 7.46732 1.33331H12.534C13.2807 1.33331 13.6541 1.33331 13.9393 1.47864C14.1902 1.60647 14.3942 1.81044 14.522 2.06133C14.6673 2.34654 14.6673 2.71991 14.6673 3.46665V8.53331C14.6673 9.28005 14.6673 9.65342 14.522 9.93863C14.3942 10.1895 14.1902 10.3935 13.9393 10.5213C13.6541 10.6666 13.2807 10.6666 12.534 10.6666H10.6673" stroke="#70707B" stroke-width="1.4" stroke-linecap="round" stroke-linejoin="round"/>
<path d="M1.33398 7.46665C1.33398 6.71991 1.33398 6.34654 1.47931 6.06133C1.60714 5.81044 1.81111 5.60647 2.062 5.47864C2.34721 5.33331 2.72058 5.33331 3.46732 5.33331H8.53398C9.28072 5.33331 9.65409 5.33331 9.93931 5.47864C10.1902 5.60647 10.3942 5.81044 10.522 6.06133C10.6673 6.34654 10.6673 6.71991 10.6673 7.46665V12.5333C10.6673 13.28 10.6673 13.6534 10.522 13.9386C10.3942 14.1895 10.1902 14.3935 9.93931 14.5213C9.65409 14.6666 9.28072 14.6666 8.53398 14.6666H3.46732C2.72058 14.6666 2.34721 14.6666 2.062 14.5213C1.81111 14.3935 1.60714 14.1895 1.47931 13.9386C1.33398 13.6534 1.33398 13.2801 1.33398 12.5333V7.46665Z" stroke="#70707B" stroke-width="1.4" stroke-linecap="round" stroke-linejoin="round"/>
</g>
<defs>
<clipPath id="clip0_124_23411">
<rect width="16" height="16" fill="white"/>
</clipPath>
</defs>
</svg>
