<svg width="14" height="14" viewBox="0 0 14 14" fill="none" xmlns="http://www.w3.org/2000/svg">
<path fill-rule="evenodd" clip-rule="evenodd" d="M3.00955 4.08331H7.48785C7.79534 4.0833 8.06064 4.0833 8.27913 4.10115C8.50975 4.11999 8.73913 4.16159 8.95985 4.27405C9.28913 4.44183 9.55685 4.70955 9.72463 5.03883C9.83709 5.25955 9.87869 5.48893 9.89753 5.71955C9.91538 5.93804 9.91538 6.20331 9.91537 6.51081V10.9891C9.91538 11.2966 9.91538 11.5619 9.89753 11.7804C9.87869 12.011 9.83709 12.2404 9.72463 12.4611C9.55685 12.7904 9.28913 13.0581 8.95985 13.2259C8.73913 13.3384 8.50975 13.38 8.27913 13.3988C8.06064 13.4167 7.79539 13.4167 7.48791 13.4166H3.00956C2.70208 13.4167 2.43675 13.4167 2.21826 13.3988C1.98765 13.38 1.75827 13.3384 1.53755 13.2259C1.20826 13.0581 0.940547 12.7904 0.772769 12.4611C0.660306 12.2404 0.618705 12.011 0.599863 11.7804C0.582011 11.5619 0.582021 11.2966 0.582032 10.9891V6.51084C0.582021 6.20333 0.582011 5.93805 0.599863 5.71955C0.618705 5.48893 0.660306 5.25955 0.772769 5.03883C0.940547 4.70955 1.20826 4.44183 1.53755 4.27405C1.75827 4.16159 1.98765 4.11999 2.21826 4.10115C2.43676 4.0833 2.70205 4.0833 3.00955 4.08331Z" fill="#D1D1D6"/>
<path d="M10.9879 0.583313H6.50955C6.20206 0.583304 5.93676 0.583295 5.71827 0.601147C5.48765 0.619989 5.25827 0.66159 5.03755 0.774053C4.70827 0.941832 4.44055 1.20955 4.27277 1.53883C4.16031 1.75955 4.11871 1.98893 4.09987 2.21955C4.08386 2.41542 4.08221 2.64889 4.08205 2.91666L7.51254 2.91665C7.79758 2.91659 8.10663 2.91651 8.37413 2.93837C8.6769 2.96311 9.0769 3.02433 9.4895 3.23456C10.0383 3.51419 10.4845 3.96038 10.7641 4.50919C10.9744 4.92179 11.0356 5.32179 11.0603 5.62456C11.0822 5.89207 11.0821 6.20112 11.082 6.48617L11.082 9.91663C11.3498 9.91647 11.5833 9.91482 11.7791 9.89882C12.0098 9.87997 12.2391 9.83837 12.4599 9.72591C12.7891 9.55813 13.0569 9.29042 13.2246 8.96113C13.3371 8.74041 13.3787 8.51103 13.3975 8.28042C13.4154 8.06193 13.4154 7.79667 13.4154 7.48919V3.01084C13.4154 2.70336 13.4154 2.43803 13.3975 2.21955C13.3787 1.98893 13.3371 1.75955 13.2246 1.53883C13.0569 1.20955 12.7891 0.941832 12.4599 0.774053C12.2391 0.66159 12.0098 0.619989 11.7791 0.601147C11.5606 0.583295 11.2953 0.583304 10.9879 0.583313Z" fill="#D1D1D6"/>
</svg>
