<svg width="16" height="16" viewBox="0 0 16 16" fill="none" xmlns="http://www.w3.org/2000/svg">
<path d="M5.33594 2.40016C5.33594 2.02679 5.33594 1.84011 5.26328 1.6975C5.19936 1.57206 5.09737 1.47007 4.97193 1.40616C4.82932 1.3335 4.64264 1.3335 4.26927 1.3335H4.11024C3.75882 1.33349 3.45563 1.33348 3.20592 1.35388C2.94236 1.37541 2.68021 1.42296 2.42796 1.55148C2.05163 1.74323 1.74567 2.04919 1.55393 2.42552C1.4254 2.67777 1.37785 2.93992 1.35632 3.20348C1.33592 3.45319 1.33593 3.75635 1.33594 4.10778V4.26683C1.33594 4.6402 1.33594 4.82688 1.4086 4.96949C1.47252 5.09493 1.5745 5.19692 1.69994 5.26083C1.84255 5.3335 2.02924 5.3335 2.4026 5.3335H4.26927C4.64264 5.3335 4.82932 5.3335 4.97193 5.26083C5.09737 5.19692 5.19936 5.09493 5.26328 4.96949C5.33594 4.82688 5.33594 4.6402 5.33594 4.26683V2.40016Z" fill="#79716B"/>
<path d="M2.4026 6.66683C2.02924 6.66683 1.84255 6.66683 1.69994 6.73949C1.5745 6.80341 1.47252 6.90539 1.4086 7.03084C1.33594 7.17344 1.33594 7.36013 1.33594 7.7335V11.8925C1.33593 12.2439 1.33592 12.5471 1.35632 12.7968C1.37785 13.0604 1.4254 13.3226 1.55393 13.5748C1.74567 13.9511 2.05163 14.2571 2.42796 14.4488C2.68021 14.5774 2.94236 14.6249 3.20592 14.6465C3.45563 14.6669 3.7588 14.6668 4.11023 14.6668H4.26927C4.64264 14.6668 4.82932 14.6668 4.97193 14.5942C5.09737 14.5303 5.19936 14.4283 5.26328 14.3028C5.33594 14.1602 5.33594 13.9735 5.33594 13.6002L5.33594 7.7335C5.33594 7.36013 5.33594 7.17344 5.26328 7.03084C5.19936 6.90539 5.09737 6.80341 4.97193 6.73949C4.82932 6.66683 4.64264 6.66683 4.26927 6.66683H2.4026Z" fill="#79716B"/>
<path d="M6.66927 13.6002C6.66927 13.9735 6.66927 14.1602 6.74193 14.3028C6.80585 14.4283 6.90784 14.5303 7.03328 14.5942C7.17589 14.6668 7.36257 14.6668 7.73594 14.6668H11.895C12.2464 14.6668 12.5496 14.6669 12.7993 14.6465C13.0629 14.6249 13.325 14.5774 13.5773 14.4488C13.9536 14.2571 14.2595 13.9511 14.4513 13.5748C14.5798 13.3226 14.6274 13.0604 14.6489 12.7968C14.6693 12.5471 14.6693 12.244 14.6693 11.8925V7.7335C14.6693 7.36013 14.6693 7.17344 14.5966 7.03084C14.5327 6.90539 14.4307 6.80341 14.3053 6.73949C14.1627 6.66683 13.976 6.66683 13.6026 6.66683H7.73594C7.36257 6.66683 7.17589 6.66683 7.03328 6.73949C6.90784 6.80341 6.80585 6.90539 6.74193 7.03084C6.66927 7.17344 6.66927 7.36013 6.66927 7.7335L6.66927 13.6002Z" fill="#79716B"/>
<path d="M14.6693 4.26683C14.6693 4.6402 14.6693 4.82688 14.5966 4.96949C14.5327 5.09493 14.4307 5.19692 14.3053 5.26083C14.1627 5.3335 13.976 5.3335 13.6026 5.3335H7.73594C7.36257 5.3335 7.17589 5.3335 7.03328 5.26083C6.90784 5.19692 6.80585 5.09493 6.74193 4.96949C6.66927 4.82688 6.66927 4.6402 6.66927 4.26683V2.40016C6.66927 2.02679 6.66927 1.84011 6.74193 1.6975C6.80585 1.57206 6.90784 1.47007 7.03328 1.40616C7.17589 1.3335 7.36257 1.3335 7.73594 1.3335H11.895C12.2464 1.33349 12.5496 1.33348 12.7993 1.35388C13.0629 1.37541 13.325 1.42296 13.5773 1.55148C13.9536 1.74323 14.2595 2.04919 14.4513 2.42552C14.5798 2.67777 14.6274 2.93992 14.6489 3.20348C14.6693 3.45319 14.6693 3.75636 14.6693 4.10779V4.26683Z" fill="#79716B"/>
</svg>
