<svg width="374" height="155" viewBox="0 0 374 155" fill="none" xmlns="http://www.w3.org/2000/svg">
<rect x="26.7727" y="67.8247" width="320.088" height="23.1871" rx="3.7" fill="#FFFBFA" stroke="#FACCCC" stroke-width="0.6"/>
<ellipse cx="40.8437" cy="79.8019" rx="6.05071" ry="6.13861" fill="#F4F4F5"/>
<rect x="52.9453" y="77.5" width="92.2734" height="4.60396" rx="2" fill="#E4E4E7"/>
<rect x="175.473" y="77.5" width="21.9338" height="4.60396" rx="2" fill="#E4E4E7"/>
<rect x="247.324" y="77.5" width="39.3296" height="4.60396" rx="2" fill="#E4E4E7"/>
<rect x="300.568" y="73.196" width="39.486" height="13.2119" rx="1.7" stroke="#E4E4E7" stroke-width="0.6"/>
<g clip-path="url(#clip0_11_14440)">
<path d="M306.885 76.9244H308.776M304.994 77.8836H310.667M310.036 77.8836L309.815 81.2468C309.782 81.7514 309.766 82.0037 309.658 82.195C309.564 82.3634 309.421 82.4988 309.249 82.5834C309.054 82.6794 308.805 82.6794 308.306 82.6794H307.355C306.856 82.6794 306.607 82.6794 306.412 82.5834C306.24 82.4988 306.097 82.3634 306.003 82.195C305.895 82.0037 305.879 81.7514 305.845 81.2468L305.624 77.8836M307.2 79.3223V80.9209M308.461 79.3223V80.9209" stroke="#DF7777" stroke-width="0.8" stroke-linecap="round" stroke-linejoin="round"/>
</g>
<rect x="313.881" y="77.5" width="22.6902" height="4.60396" rx="2" fill="#E4E4E7"/>
<rect x="26.7727" y="40.9683" width="320.088" height="23.1871" rx="3.7" fill="#FCFCFC" stroke="#F4F4F5" stroke-width="0.6"/>
<ellipse cx="40.8437" cy="52.9455" rx="6.05071" ry="6.13861" fill="#F4F4F5"/>
<rect x="52.9453" y="50.6436" width="92.2734" height="4.60396" rx="2" fill="#E4E4E7"/>
<rect x="175.473" y="50.6436" width="21.9338" height="4.60396" rx="2" fill="#E4E4E7"/>
<rect x="247.324" y="50.6436" width="39.3296" height="4.60396" rx="2" fill="#E4E4E7"/>
<rect x="300.568" y="46.3397" width="39.486" height="13.2119" rx="1.7" stroke="#E4E4E7" stroke-width="0.6"/>
<g clip-path="url(#clip1_11_14440)">
<path d="M306.885 50.068H308.776M304.994 51.0272H310.667M310.036 51.0272L309.815 54.3904C309.782 54.895 309.766 55.1473 309.658 55.3386C309.564 55.507 309.421 55.6424 309.249 55.7269C309.054 55.8229 308.805 55.8229 308.306 55.8229H307.355C306.856 55.8229 306.607 55.8229 306.412 55.7269C306.24 55.6424 306.097 55.507 306.003 55.3386C305.895 55.1473 305.879 54.895 305.845 54.3904L305.624 51.0272M307.2 52.4659V54.0645M308.461 52.4659V54.0645" stroke="#D1D1D6" stroke-width="0.8" stroke-linecap="round" stroke-linejoin="round"/>
</g>
<rect x="313.881" y="50.6436" width="22.6902" height="4.60396" rx="2" fill="#E4E4E7"/>
<rect x="26.7727" y="94.6811" width="320.088" height="23.1871" rx="3.7" fill="#FCFCFC" stroke="#F4F4F5" stroke-width="0.6"/>
<ellipse cx="40.8437" cy="106.659" rx="6.05071" ry="6.13861" fill="#F4F4F5"/>
<rect x="52.9453" y="104.356" width="92.2734" height="4.60396" rx="2" fill="#E4E4E7"/>
<rect x="175.473" y="104.356" width="21.9338" height="4.60396" rx="2" fill="#E4E4E7"/>
<rect x="247.324" y="104.356" width="39.3296" height="4.60396" rx="2" fill="#E4E4E7"/>
<rect x="300.568" y="100.052" width="39.486" height="13.2119" rx="1.7" stroke="#E4E4E7" stroke-width="0.6"/>
<g clip-path="url(#clip2_11_14440)">
<path d="M306.885 103.781H308.776M304.994 104.74H310.667M310.036 104.74L309.815 108.103C309.782 108.608 309.766 108.86 309.658 109.051C309.564 109.22 309.421 109.355 309.249 109.44C309.054 109.536 308.805 109.536 308.306 109.536H307.355C306.856 109.536 306.607 109.536 306.412 109.44C306.24 109.355 306.097 109.22 306.003 109.051C305.895 108.86 305.879 108.608 305.845 108.103L305.624 104.74M307.2 106.179V107.777M308.461 106.179V107.777" stroke="#D1D1D6" stroke-width="0.8" stroke-linecap="round" stroke-linejoin="round"/>
</g>
<rect x="313.881" y="104.356" width="22.6902" height="4.60396" rx="2" fill="#E4E4E7"/>
<rect x="26.6727" y="121.438" width="320.288" height="23.3871" rx="3.8" fill="#FCFCFC" stroke="#F4F4F5" stroke-width="0.4"/>
<ellipse cx="40.8437" cy="133.515" rx="6.05071" ry="6.13861" fill="#F4F4F5"/>
<rect x="52.9453" y="131.213" width="92.2734" height="4.60396" rx="2" fill="#E4E4E7"/>
<rect x="175.473" y="131.213" width="21.9338" height="4.60396" rx="2" fill="#E4E4E7"/>
<rect x="247.324" y="131.213" width="39.3296" height="4.60396" rx="2" fill="#E4E4E7"/>
<rect x="300.568" y="126.909" width="39.486" height="13.2119" rx="1.7" stroke="#E4E4E7" stroke-width="0.6"/>
<g clip-path="url(#clip3_11_14440)">
<path d="M306.885 130.637H308.776M304.994 131.596H310.667M310.036 131.596L309.815 134.96C309.782 135.464 309.766 135.717 309.658 135.908C309.564 136.076 309.421 136.212 309.249 136.296C309.054 136.392 308.805 136.392 308.306 136.392H307.355C306.856 136.392 306.607 136.392 306.412 136.296C306.24 136.212 306.097 136.076 306.003 135.908C305.895 135.717 305.879 135.464 305.845 134.96L305.624 131.596M307.2 133.035V134.634M308.461 133.035V134.634" stroke="#D1D1D6" stroke-width="0.8" stroke-linecap="round" stroke-linejoin="round"/>
</g>
<rect x="313.881" y="131.213" width="22.6902" height="4.60396" rx="2" fill="#E4E4E7"/>
<rect x="26.6727" y="14.0119" width="320.288" height="23.3871" rx="3.8" fill="#FCFCFC" stroke="#F4F4F5" stroke-width="0.4"/>
<ellipse cx="40.8437" cy="26.0891" rx="6.05071" ry="6.13861" fill="#F4F4F5"/>
<rect x="52.9453" y="23.7871" width="92.2734" height="4.60396" rx="2" fill="#E4E4E7"/>
<rect x="175.473" y="23.7871" width="21.9338" height="4.60396" rx="2" fill="#E4E4E7"/>
<rect x="247.324" y="23.7871" width="39.3296" height="4.60396" rx="2" fill="#E4E4E7"/>
<rect x="300.568" y="19.4831" width="39.486" height="13.2119" rx="1.7" stroke="#E4E4E7" stroke-width="0.6"/>
<g clip-path="url(#clip4_11_14440)">
<path d="M306.885 23.2115H308.776M304.994 24.1707H310.667M310.036 24.1707L309.815 27.5339C309.782 28.0385 309.766 28.2908 309.658 28.4821C309.564 28.6505 309.421 28.7859 309.249 28.8705C309.054 28.9665 308.805 28.9665 308.306 28.9665H307.355C306.856 28.9665 306.607 28.9665 306.412 28.8705C306.24 28.7859 306.097 28.6505 306.003 28.4821C305.895 28.2908 305.879 28.0385 305.845 27.5339L305.624 24.1707M307.2 25.6094V27.208M308.461 25.6094V27.208" stroke="#D1D1D6" stroke-width="0.8" stroke-linecap="round" stroke-linejoin="round"/>
</g>
<rect x="313.881" y="23.7871" width="22.6902" height="4.60396" rx="2" fill="#E4E4E7"/>
<rect y="94.3811" width="373.632" height="60.6188" fill="url(#paint0_linear_11_14440)"/>
<rect width="373.632" height="64.4554" fill="url(#paint1_linear_11_14440)"/>
<defs>
<linearGradient id="paint0_linear_11_14440" x1="186.816" y1="94.3811" x2="186.816" y2="155" gradientUnits="userSpaceOnUse">
<stop stop-color="white" stop-opacity="0"/>
<stop offset="1" stop-color="white"/>
</linearGradient>
<linearGradient id="paint1_linear_11_14440" x1="186.816" y1="0" x2="186.816" y2="64.4554" gradientUnits="userSpaceOnUse">
<stop stop-color="white"/>
<stop offset="1" stop-color="white" stop-opacity="0"/>
</linearGradient>
<clipPath id="clip0_11_14440">
<rect width="7.56339" height="7.67327" fill="white" transform="translate(304.049 75.9653)"/>
</clipPath>
<clipPath id="clip1_11_14440">
<rect width="7.56339" height="7.67327" fill="white" transform="translate(304.049 49.1089)"/>
</clipPath>
<clipPath id="clip2_11_14440">
<rect width="7.56339" height="7.67327" fill="white" transform="translate(304.049 102.822)"/>
</clipPath>
<clipPath id="clip3_11_14440">
<rect width="7.56339" height="7.67327" fill="white" transform="translate(304.049 129.678)"/>
</clipPath>
<clipPath id="clip4_11_14440">
<rect width="7.56339" height="7.67327" fill="white" transform="translate(304.049 22.2524)"/>
</clipPath>
</defs>
</svg>
