<svg width="50" height="50" viewBox="0 0 50 50" fill="none" xmlns="http://www.w3.org/2000/svg">
<g filter="url(#filter0_ii_12_17446)">
<rect width="50" height="50" rx="6" fill="#5866E1"/>
</g>
<path opacity="0.2" d="M2.5 12.6087H47.5M2.5 37.3913H47.5M37.3913 2.5L37.3913 47.5M12.6087 2.5L12.6087 47.5" stroke="url(#paint0_radial_12_17446)"/>
<rect x="1" y="1" width="48" height="48" rx="5" stroke="#6371F0" stroke-width="2"/>
<path opacity="0.15" d="M7.5 0C3.35786 0 0 3.35786 0 7.5V8.75C0 4.60786 3.35786 1.25 7.5 1.25H42.5C46.6421 1.25 50 4.60786 50 8.75V7.5C50 3.35786 46.6421 0 42.5 0H7.5Z" fill="white"/>
<g filter="url(#filter1_d_12_17446)">
<rect x="8.75" y="15.4167" width="31.746" height="20.8333" rx="2" fill="#9DAEFF"/>
<rect x="9.25" y="15.9167" width="30.746" height="19.8333" rx="1.5" stroke="#E0E6FE"/>
</g>
<rect x="8.75" y="18.75" width="31.25" height="3.75" fill="#E0E6FE"/>
<rect x="32.561" y="33.2739" width="5.95238" height="0.992065" fill="#E0E6FE"/>
<rect x="32.561" y="30.7739" width="5.95238" height="0.992064" fill="#505DCE"/>
<rect x="18.6719" y="30.7739" width="12.8968" height="0.992064" fill="#505DCE"/>
<g filter="url(#filter2_d_12_17446)">
<path fill-rule="evenodd" clip-rule="evenodd" d="M40.6947 11.25C37.6265 11.25 35.1392 13.7373 35.1392 16.8056C35.1392 19.8738 37.6265 22.3611 40.6947 22.3611C43.763 22.3611 46.2503 19.8738 46.2503 16.8056C46.2503 13.7373 43.763 11.25 40.6947 11.25Z" fill="white"/>
</g>
<path d="M39.0327 16.7277C39.3719 16.9326 39.5929 17.1028 39.856 17.4065C40.5382 16.2561 41.3614 14.9706 42.3243 14.0659L42.4185 14.0278H43.4721C42.0594 15.6715 40.956 17.6015 39.9004 19.5834C39.266 18.4633 38.839 17.7422 37.9165 16.9919L39.0327 16.7277Z" fill="#5866E1"/>
<defs>
<filter id="filter0_ii_12_17446" x="0" y="0" width="50" height="50" filterUnits="userSpaceOnUse" color-interpolation-filters="sRGB">
<feFlood flood-opacity="0" result="BackgroundImageFix"/>
<feBlend mode="normal" in="SourceGraphic" in2="BackgroundImageFix" result="shape"/>
<feColorMatrix in="SourceAlpha" type="matrix" values="0 0 0 0 0 0 0 0 0 0 0 0 0 0 0 0 0 0 127 0" result="hardAlpha"/>
<feMorphology radius="2" operator="erode" in="SourceAlpha" result="effect1_innerShadow_12_17446"/>
<feOffset/>
<feGaussianBlur stdDeviation="1.5"/>
<feComposite in2="hardAlpha" operator="arithmetic" k2="-1" k3="1"/>
<feColorMatrix type="matrix" values="0 0 0 0 0 0 0 0 0 0 0 0 0 0 0 0 0 0 0.2 0"/>
<feBlend mode="normal" in2="shape" result="effect1_innerShadow_12_17446"/>
<feColorMatrix in="SourceAlpha" type="matrix" values="0 0 0 0 0 0 0 0 0 0 0 0 0 0 0 0 0 0 127 0" result="hardAlpha"/>
<feMorphology radius="3" operator="erode" in="SourceAlpha" result="effect2_innerShadow_12_17446"/>
<feOffset/>
<feGaussianBlur stdDeviation="1"/>
<feComposite in2="hardAlpha" operator="arithmetic" k2="-1" k3="1"/>
<feColorMatrix type="matrix" values="0 0 0 0 0 0 0 0 0 0 0 0 0 0 0 0 0 0 0.03 0"/>
<feBlend mode="normal" in2="effect1_innerShadow_12_17446" result="effect2_innerShadow_12_17446"/>
</filter>
<filter id="filter1_d_12_17446" x="6.75" y="14.4167" width="35.7461" height="24.8333" filterUnits="userSpaceOnUse" color-interpolation-filters="sRGB">
<feFlood flood-opacity="0" result="BackgroundImageFix"/>
<feColorMatrix in="SourceAlpha" type="matrix" values="0 0 0 0 0 0 0 0 0 0 0 0 0 0 0 0 0 0 127 0" result="hardAlpha"/>
<feOffset dy="1"/>
<feGaussianBlur stdDeviation="1"/>
<feComposite in2="hardAlpha" operator="out"/>
<feColorMatrix type="matrix" values="0 0 0 0 0 0 0 0 0 0 0 0 0 0 0 0 0 0 0.25 0"/>
<feBlend mode="normal" in2="BackgroundImageFix" result="effect1_dropShadow_12_17446"/>
<feBlend mode="normal" in="SourceGraphic" in2="effect1_dropShadow_12_17446" result="shape"/>
</filter>
<filter id="filter2_d_12_17446" x="34.1392" y="10.75" width="13.1113" height="13.1111" filterUnits="userSpaceOnUse" color-interpolation-filters="sRGB">
<feFlood flood-opacity="0" result="BackgroundImageFix"/>
<feColorMatrix in="SourceAlpha" type="matrix" values="0 0 0 0 0 0 0 0 0 0 0 0 0 0 0 0 0 0 127 0" result="hardAlpha"/>
<feOffset dy="0.5"/>
<feGaussianBlur stdDeviation="0.5"/>
<feComposite in2="hardAlpha" operator="out"/>
<feColorMatrix type="matrix" values="0 0 0 0 0 0 0 0 0 0 0 0 0 0 0 0 0 0 0.15 0"/>
<feBlend mode="normal" in2="BackgroundImageFix" result="effect1_dropShadow_12_17446"/>
<feBlend mode="normal" in="SourceGraphic" in2="effect1_dropShadow_12_17446" result="shape"/>
</filter>
<radialGradient id="paint0_radial_12_17446" cx="0" cy="0" r="1" gradientUnits="userSpaceOnUse" gradientTransform="translate(24.6739 21.7391) rotate(89.5345) scale(40.1372 27.5748)">
<stop stop-color="white"/>
<stop offset="1" stop-color="white" stop-opacity="0"/>
</radialGradient>
</defs>
</svg>
