<svg width="16" height="16" viewBox="0 0 16 16" fill="none" xmlns="http://www.w3.org/2000/svg">
<g clip-path="url(#clip0_317_34550)">
<path d="M10.6654 10.6666V12.5333C10.6654 13.28 10.6654 13.6534 10.52 13.9386C10.3922 14.1895 10.1882 14.3935 9.93735 14.5213C9.65214 14.6666 9.27877 14.6666 8.53203 14.6666H3.46536C2.71863 14.6666 2.34526 14.6666 2.06004 14.5213C1.80916 14.3935 1.60519 14.1895 1.47736 13.9386C1.33203 13.6534 1.33203 13.28 1.33203 12.5333V7.46665C1.33203 6.71991 1.33203 6.34654 1.47736 6.06133C1.60519 5.81044 1.80916 5.60647 2.06004 5.47864C2.34526 5.33331 2.71863 5.33331 3.46536 5.33331H5.33203M7.46536 10.6666H12.532C13.2788 10.6666 13.6521 10.6666 13.9374 10.5213C14.1882 10.3935 14.3922 10.1895 14.52 9.93863C14.6654 9.65342 14.6654 9.28005 14.6654 8.53331V3.46665C14.6654 2.71991 14.6654 2.34654 14.52 2.06133C14.3922 1.81044 14.1882 1.60647 13.9374 1.47864C13.6521 1.33331 13.2788 1.33331 12.532 1.33331H7.46536C6.71863 1.33331 6.34526 1.33331 6.06004 1.47864C5.80916 1.60647 5.60519 1.81044 5.47736 2.06133C5.33203 2.34654 5.33203 2.71991 5.33203 3.46665V8.53331C5.33203 9.28005 5.33203 9.65342 5.47736 9.93863C5.60519 10.1895 5.80916 10.3935 6.06004 10.5213C6.34526 10.6666 6.71863 10.6666 7.46536 10.6666Z" stroke="#D1D1D6" stroke-linecap="round" stroke-linejoin="round"/>
</g>
<defs>
<clipPath id="clip0_317_34550">
<rect width="16" height="16" fill="white"/>
</clipPath>
</defs>
</svg>
