<svg width="16" height="16" viewBox="0 0 16 16" fill="none" xmlns="http://www.w3.org/2000/svg">
<path opacity="0.12" d="M12.1978 11.0129L12.6654 4H3.33203L3.79956 11.0129C3.8697 12.065 3.90477 12.5911 4.13202 12.99C4.33209 13.3412 4.63387 13.6235 4.99759 13.7998C5.41072 14 5.93797 14 6.99247 14H9.00493C10.0594 14 10.5867 14 10.9998 13.7998C11.3635 13.6235 11.6653 13.3412 11.8654 12.99C12.0926 12.5911 12.1277 12.065 12.1978 11.0129Z" fill="#D1D1D6"/>
<path d="M6 2H10M2 4H14M12.6667 4L12.1991 11.0129C12.129 12.065 12.0939 12.5911 11.8667 12.99C11.6666 13.3412 11.3648 13.6235 11.0011 13.7998C10.588 14 10.0607 14 9.00623 14H6.99377C5.93927 14 5.41202 14 4.99889 13.7998C4.63517 13.6235 4.33339 13.3412 4.13332 12.99C3.90607 12.5911 3.871 12.065 3.80086 11.0129L3.33333 4M6.66667 7V10.3333M9.33333 7V10.3333" stroke="#D1D1D6" stroke-width="1.2" stroke-linecap="round" stroke-linejoin="round"/>
</svg>
