<svg width="390" height="175" viewBox="0 0 390 175" fill="none" xmlns="http://www.w3.org/2000/svg">
<rect width="415" height="175" transform="translate(-12)" fill="url(#paint0_linear_75_17053)"/>
<path d="M182.388 76.3402C182.576 76.6781 183.002 76.7997 183.34 76.6118L188.846 73.5496C189.184 73.3617 189.305 72.9355 189.118 72.5976C188.93 72.2598 188.503 72.1382 188.166 72.3261L183.272 75.048L180.55 70.154C180.362 69.8161 179.935 69.6946 179.598 69.8825C179.26 70.0704 179.138 70.4966 179.326 70.8345L182.388 76.3402ZM224.234 57.6836C218.704 55.7185 209.979 54.2502 201.755 56.2633C193.478 58.2894 185.74 63.8411 182.327 75.808L183.673 76.192C186.936 64.751 194.256 59.5404 202.088 57.6232C209.974 55.693 218.411 57.1002 223.766 59.0028L224.234 57.6836Z" fill="#A0A0AB"/>
<path d="M41 96.0004C41 91.5821 44.5817 88.0004 49 88.0004H228C232.418 88.0004 236 91.5821 236 96.0004V137H41V96.0004Z" fill="url(#paint1_linear_75_17053)"/>
<circle cx="67.5" cy="112.5" r="17.5" fill="#F4F4F5"/>
<path d="M85 112.5C85 122.165 77.165 130 67.5 130C57.835 130 50 122.165 50 112.5C50 102.835 57.835 95.0004 67.5 95.0004C77.165 95.0004 85 102.835 85 112.5ZM52.625 112.5C52.625 120.716 59.2848 127.375 67.5 127.375C75.7152 127.375 82.375 120.716 82.375 112.5C82.375 104.285 75.7152 97.6254 67.5 97.6254C59.2848 97.6254 52.625 104.285 52.625 112.5Z" fill="#E4E4E7"/>
<path d="M83.6875 112.5C84.4124 112.5 85.0051 111.912 84.9508 111.189C84.7461 108.465 83.9061 105.821 82.4904 103.471C80.8485 100.745 78.4944 98.5183 75.6814 97.0306C72.8685 95.5429 69.7031 94.8504 66.5259 95.0275C63.3487 95.2046 60.28 96.2447 57.6498 98.0358C55.0196 99.8269 52.9276 102.301 51.5988 105.193C50.27 108.084 49.7547 111.283 50.1084 114.446C50.4621 117.608 51.6714 120.614 53.6062 123.14C55.2743 125.319 57.4272 127.069 59.8866 128.257C60.5393 128.573 61.3041 128.237 61.5696 127.562C61.8352 126.888 61.5004 126.131 60.852 125.807C58.835 124.799 57.068 123.344 55.6902 121.544C54.0457 119.397 53.0178 116.842 52.7172 114.154C52.4165 111.466 52.8545 108.747 53.984 106.289C55.1135 103.831 56.8917 101.728 59.1273 100.205C61.363 98.683 63.9714 97.799 66.672 97.6484C69.3726 97.4979 72.0632 98.0865 74.4542 99.351C76.8452 100.616 78.8462 102.508 80.2418 104.825C81.4111 106.766 82.1185 108.944 82.3171 111.19C82.381 111.912 82.9626 112.5 83.6875 112.5Z" fill="#ADADAD"/>
<rect x="93" y="101" width="82" height="10" rx="5" fill="#F4F4F5"/>
<rect x="93" y="115" width="97" height="7" rx="3.5" fill="#F4F4F5"/>
<path d="M206 108L212 114L218 108" stroke="black" stroke-width="2" stroke-linecap="round" stroke-linejoin="round"/>
<g style="mix-blend-mode:multiply">
<rect x="225" y="26.9473" width="65.8903" height="67.053" rx="28" transform="rotate(-9.56464 225 26.9473)" fill="white"/>
<rect width="63.4855" height="63.4855" transform="translate(227 28.5479) rotate(-9.56464)" fill="white"/>
<path d="M240.422 44.5272C239.684 40.1446 239.315 37.9533 239.885 36.1357C240.388 34.5368 241.383 33.138 242.729 32.1396C244.259 31.0046 246.45 30.6354 250.833 29.8969L259.211 28.4852C261.125 28.1627 262.082 28.0015 263.019 28.0659C263.85 28.1231 264.666 28.3106 265.439 28.6217C266.31 28.9726 267.101 29.5352 268.682 30.6606L278.4 37.5756C279.981 38.701 280.772 39.2637 281.389 39.9718C281.936 40.5997 282.381 41.3097 282.707 42.0759C283.075 42.9401 283.236 43.8971 283.559 45.8111L286.729 64.6227C287.467 69.0053 287.836 71.1966 287.266 73.0142C286.763 74.6131 285.768 76.012 284.422 77.0103C282.892 78.1453 280.7 78.5145 276.318 79.253L259.624 82.066C255.241 82.8045 253.05 83.1737 251.232 82.6029C249.633 82.1007 248.234 81.1053 247.236 79.7593C246.101 78.2291 245.732 76.0378 244.993 71.6552L240.422 44.5272Z" fill="#F2F2F2"/>
<path d="M264.515 28.3142L266.331 39.0885C266.577 40.5494 266.7 41.2798 267.079 41.7899C267.411 42.2386 267.878 42.5704 268.411 42.7378C269.016 42.9281 269.747 42.805 271.208 42.5588L281.982 40.7433M283.559 45.8111L286.729 64.6227C287.467 69.0053 287.836 71.1966 287.266 73.0142C286.763 74.6131 285.768 76.012 284.422 77.0103C282.892 78.1453 280.7 78.5145 276.318 79.253L259.624 82.066C255.241 82.8045 253.05 83.1737 251.232 82.6029C249.633 82.1007 248.234 81.1053 247.236 79.7593C246.101 78.2291 245.732 76.0378 244.993 71.6552L240.422 44.5272C239.684 40.1446 239.315 37.9533 239.885 36.1357C240.388 34.5368 241.383 33.138 242.729 32.1396C244.259 31.0046 246.45 30.6354 250.833 29.8969L259.211 28.4852C261.125 28.1627 262.082 28.0015 263.019 28.0659C263.85 28.1231 264.666 28.3106 265.439 28.6217C266.31 28.9726 267.101 29.5352 268.682 30.6606L278.4 37.5756C279.981 38.701 280.772 39.2637 281.389 39.9718C281.936 40.5997 282.381 41.3097 282.707 42.0759C283.075 42.9401 283.236 43.8971 283.559 45.8111Z" stroke="#EEEEEE" stroke-width="2" stroke-linecap="round" stroke-linejoin="round"/>
<path d="M259.659 51.381C259.566 50.8288 259.519 50.5526 259.376 50.3598C259.251 50.1902 259.074 50.0647 258.873 50.0014C258.644 49.9295 258.368 49.976 257.815 50.069L257.58 50.1086C257.06 50.1961 256.612 50.2717 256.248 50.364C255.863 50.4616 255.487 50.5972 255.146 50.8501C254.637 51.2275 254.261 51.7563 254.071 52.3607C253.944 52.7659 253.939 53.1655 253.973 53.5607C254.005 53.9351 254.08 54.3836 254.168 54.9034L254.207 55.1386C254.3 55.6909 254.347 55.9671 254.49 56.1599C254.616 56.3295 254.792 56.455 254.993 56.5183C255.222 56.5902 255.499 56.5437 256.051 56.4507L258.812 55.9857C259.364 55.8927 259.64 55.8461 259.833 55.7031C260.003 55.5773 260.128 55.4011 260.192 55.1996C260.264 54.9706 260.217 54.6944 260.124 54.1422L259.659 51.381Z" fill="url(#paint2_linear_75_17053)"/>
<path d="M256.383 58.4229C255.831 58.5159 255.555 58.5624 255.362 58.7054C255.192 58.8312 255.067 59.0075 255.003 59.209C254.931 59.438 254.978 59.7141 255.071 60.2664L256.107 66.4183C256.195 66.9381 256.27 67.3866 256.362 67.7509C256.46 68.1354 256.596 68.5113 256.849 68.8524C257.226 69.3613 257.755 69.7376 258.359 69.9275C258.764 70.0548 259.164 70.0598 259.559 70.026C259.934 69.994 260.382 69.9184 260.902 69.8309L261.137 69.7912C261.689 69.6982 261.965 69.6517 262.158 69.5087C262.328 69.3829 262.453 69.2067 262.517 69.0052C262.589 68.7761 262.542 68.5 262.449 67.9477L260.988 59.2699C260.895 58.7177 260.848 58.4415 260.705 58.2487C260.579 58.0791 260.403 57.9536 260.202 57.8903C259.973 57.8184 259.696 57.8649 259.144 57.9579L256.383 58.4229Z" fill="url(#paint3_linear_75_17053)"/>
<path d="M264.421 67.6156C264.514 68.1678 264.561 68.444 264.704 68.6368C264.83 68.8064 265.006 68.9319 265.207 68.9952C265.436 69.0671 265.713 69.0206 266.265 68.9276L272.417 67.8915C272.937 67.804 273.385 67.7285 273.749 67.6361C274.134 67.5386 274.51 67.4029 274.851 67.15C275.36 66.7726 275.736 66.2438 275.926 65.6394C276.053 65.2343 276.058 64.8347 276.024 64.4394C275.992 64.065 275.917 63.6166 275.829 63.0967L274.793 56.9448C274.7 56.3925 274.654 56.1164 274.511 55.9236C274.385 55.7539 274.209 55.6285 274.007 55.5652C273.778 55.4932 273.502 55.5397 272.95 55.6328L264.272 57.0943C263.72 57.1873 263.443 57.2338 263.251 57.3768C263.081 57.5026 262.956 57.6789 262.892 57.8803C262.82 58.1094 262.867 58.3855 262.96 58.9378L264.421 67.6156Z" fill="url(#paint4_linear_75_17053)"/>
<path d="M273.93 51.817C274.023 52.3693 274.069 52.6454 273.997 52.8745C273.934 53.076 273.808 53.2522 273.639 53.378C273.446 53.521 273.17 53.5675 272.618 53.6605L263.94 55.122C263.387 55.2151 263.111 55.2616 262.882 55.1896C262.681 55.1263 262.505 55.0009 262.379 54.8312C262.236 54.6384 262.189 54.3623 262.096 53.81L261.631 51.0489C261.538 50.4966 261.492 50.2205 261.564 49.9914C261.627 49.79 261.752 49.6137 261.922 49.4879C262.115 49.3449 262.391 49.2984 262.943 49.2054L269.095 48.1693C269.615 48.0817 270.063 48.0062 270.438 47.9741C270.833 47.9403 271.233 47.9453 271.638 48.0726C272.242 48.2625 272.771 48.6388 273.148 49.1477C273.401 49.4888 273.537 49.8647 273.635 50.2492C273.727 50.6135 273.802 51.062 273.89 51.5818L273.93 51.817Z" fill="url(#paint5_linear_75_17053)"/>
</g>
<g style="mix-blend-mode:multiply">
<path d="M280.048 44.0505C280.503 39.6294 280.73 37.4189 281.764 35.8188C282.674 34.4114 284.006 33.328 285.569 32.7241C287.346 32.0374 289.557 32.2649 293.978 32.7199L302.429 33.5896C304.36 33.7883 305.325 33.8876 306.212 34.1992C306.997 34.4755 307.734 34.8737 308.396 35.3792C309.142 35.9493 309.755 36.7022 310.98 38.208L318.506 47.4606C319.73 48.9664 320.343 49.7193 320.749 50.5662C321.109 51.317 321.349 52.1198 321.459 52.9452C321.584 53.8762 321.485 54.8416 321.286 56.7723L319.333 75.7489C318.878 80.17 318.651 82.3805 317.616 83.9806C316.707 85.388 315.375 86.4714 313.812 87.0754C312.034 87.762 309.824 87.5345 305.403 87.0795L288.562 85.3465C284.141 84.8915 281.931 84.6641 280.331 83.6299C278.923 82.7202 277.84 81.3883 277.236 79.8251C276.549 78.0479 276.777 75.8374 277.232 71.4163L280.048 44.0505Z" fill="#F2F2F2"/>
<path d="M307.588 34.837L306.47 45.7058C306.318 47.1795 306.242 47.9163 306.471 48.5087C306.672 49.0298 307.033 49.4738 307.502 49.777C308.036 50.1217 308.773 50.1976 310.246 50.3492L321.115 51.4677M321.286 56.7723L319.333 75.7489C318.878 80.17 318.651 82.3805 317.616 83.9806C316.707 85.388 315.375 86.4714 313.812 87.0754C312.034 87.762 309.824 87.5345 305.403 87.0795L288.562 85.3465C284.141 84.8915 281.931 84.6641 280.331 83.6299C278.923 82.7202 277.84 81.3883 277.236 79.8251C276.549 78.0479 276.777 75.8374 277.232 71.4163L280.048 44.0505C280.503 39.6294 280.73 37.4189 281.764 35.8188C282.674 34.4114 284.006 33.328 285.569 32.7241C287.346 32.0374 289.557 32.2649 293.978 32.7199L302.429 33.5896C304.36 33.7883 305.325 33.8876 306.212 34.1992C306.997 34.4755 307.734 34.8737 308.396 35.3792C309.142 35.9493 309.755 36.7022 310.98 38.208L318.506 47.4606C319.73 48.9664 320.343 49.7193 320.749 50.5662C321.109 51.317 321.349 52.1198 321.459 52.9452C321.584 53.8762 321.485 54.8416 321.286 56.7723Z" stroke="#EEEEEE" stroke-width="2" stroke-linecap="round" stroke-linejoin="round"/>
<g clip-path="url(#clip0_75_17053)">
<rect x="289.52" y="51.6485" width="24" height="24" rx="4" transform="rotate(6.87965 289.52 51.6485)" fill="url(#paint6_linear_75_17053)"/>
<path d="M304.493 72.2576L301.577 65.0565L305.926 59.0005L303.015 58.6492L300.313 62.525L298.648 58.1224L295.646 57.7601L298.448 64.6789L293.903 70.9799L296.814 71.3311L299.691 67.2271L301.49 71.8954L304.493 72.2576Z" fill="#E4E4E7"/>
</g>
</g>
<rect y="115" width="390" height="60" fill="url(#paint7_linear_75_17053)"/>
<defs>
<linearGradient id="paint0_linear_75_17053" x1="207.5" y1="0" x2="207.5" y2="175" gradientUnits="userSpaceOnUse">
<stop stop-color="#E0E0E0"/>
<stop offset="1" stop-color="white" stop-opacity="0"/>
</linearGradient>
<linearGradient id="paint1_linear_75_17053" x1="138.5" y1="88.0004" x2="138.5" y2="137" gradientUnits="userSpaceOnUse">
<stop stop-color="white"/>
<stop offset="1" stop-color="#FAFAFA" stop-opacity="0"/>
</linearGradient>
<linearGradient id="paint2_linear_75_17053" x1="275.441" y1="60.7907" x2="251.515" y2="57.2147" gradientUnits="userSpaceOnUse">
<stop stop-color="white"/>
<stop offset="0.932292" stop-color="white"/>
</linearGradient>
<linearGradient id="paint3_linear_75_17053" x1="275.441" y1="60.7907" x2="251.515" y2="57.2147" gradientUnits="userSpaceOnUse">
<stop stop-color="white"/>
<stop offset="0.932292" stop-color="white"/>
</linearGradient>
<linearGradient id="paint4_linear_75_17053" x1="275.441" y1="60.7907" x2="251.515" y2="57.2147" gradientUnits="userSpaceOnUse">
<stop stop-color="white"/>
<stop offset="0.932292" stop-color="white"/>
</linearGradient>
<linearGradient id="paint5_linear_75_17053" x1="275.441" y1="60.7907" x2="251.515" y2="57.2147" gradientUnits="userSpaceOnUse">
<stop stop-color="white"/>
<stop offset="0.932292" stop-color="white"/>
</linearGradient>
<linearGradient id="paint6_linear_75_17053" x1="289.52" y1="63.6485" x2="313.52" y2="63.6485" gradientUnits="userSpaceOnUse">
<stop stop-color="white"/>
<stop offset="1" stop-color="white"/>
</linearGradient>
<linearGradient id="paint7_linear_75_17053" x1="195" y1="115" x2="195" y2="175" gradientUnits="userSpaceOnUse">
<stop stop-color="white" stop-opacity="0"/>
<stop offset="1" stop-color="white"/>
</linearGradient>
<clipPath id="clip0_75_17053">
<rect width="24" height="24" fill="white" transform="translate(289.52 51.6485) rotate(6.87965)"/>
</clipPath>
</defs>
</svg>
