<svg width="16" height="16" viewBox="0 0 16 16" fill="none" xmlns="http://www.w3.org/2000/svg">
<path d="M8.66536 2.00004C8.66536 1.63185 8.36689 1.33337 7.9987 1.33337C7.63051 1.33337 7.33203 1.63185 7.33203 2.00004V8.39057L5.13677 6.1953C4.87642 5.93495 4.45431 5.93495 4.19396 6.1953C3.93361 6.45565 3.93361 6.87776 4.19396 7.13811L7.52729 10.4714C7.78764 10.7318 8.20975 10.7318 8.4701 10.4714L11.8034 7.13811C12.0638 6.87776 12.0638 6.45565 11.8034 6.1953C11.5431 5.93495 11.121 5.93495 10.8606 6.1953L8.66536 8.39057V2.00004Z" fill="#70707B"/>
<path d="M1.9987 9.33337C2.36689 9.33337 2.66537 9.63185 2.66537 10V10.8C2.66537 11.3711 2.66588 11.7593 2.6904 12.0593C2.71428 12.3516 2.75756 12.5011 2.81069 12.6054C2.93852 12.8562 3.1425 13.0602 3.39338 13.188C3.49764 13.2412 3.64711 13.2845 3.93939 13.3083C4.23945 13.3329 4.62765 13.3334 5.1987 13.3334H10.7987C11.3698 13.3334 11.7579 13.3329 12.058 13.3083C12.3503 13.2845 12.4998 13.2412 12.604 13.188C12.8549 13.0602 13.0589 12.8562 13.1867 12.6054C13.2398 12.5011 13.2831 12.3516 13.307 12.0593C13.3315 11.7593 13.332 11.3711 13.332 10.8V10C13.332 9.63185 13.6305 9.33337 13.9987 9.33337C14.3669 9.33337 14.6654 9.63185 14.6654 10V10.8276C14.6654 11.3642 14.6654 11.8071 14.6359 12.1679C14.6053 12.5427 14.5396 12.8871 14.3747 13.2107C14.1191 13.7124 13.7111 14.1204 13.2093 14.3761C12.8858 14.5409 12.5413 14.6066 12.1666 14.6372C11.8058 14.6667 11.3629 14.6667 10.8262 14.6667H5.17117C4.63452 14.6667 4.19161 14.6667 3.83081 14.6372C3.45608 14.6066 3.11161 14.5409 2.78806 14.3761C2.28629 14.1204 1.87834 13.7124 1.62268 13.2107C1.45782 12.8871 1.39211 12.5427 1.36149 12.1679C1.33202 11.8071 1.33202 11.3642 1.33203 10.8276V10C1.33203 9.63185 1.63051 9.33337 1.9987 9.33337Z" fill="#70707B"/>
</svg>
