<svg width="36" height="36" viewBox="0 0 36 36" fill="none" xmlns="http://www.w3.org/2000/svg">
<rect x="2" y="2" width="32" height="32" rx="16" fill="#EFF5F2"/>
<path d="M15.334 12.4C15.334 12.0266 15.334 11.84 15.2613 11.6973C15.1974 11.5719 15.0954 11.4699 14.97 11.406C14.8274 11.3333 14.6407 11.3333 14.2673 11.3333H14.1083C13.7569 11.3333 13.4537 11.3333 13.204 11.3537C12.9404 11.3753 12.6783 11.4228 12.426 11.5513C12.0497 11.7431 11.7437 12.049 11.552 12.4254C11.4234 12.6776 11.3759 12.9398 11.3544 13.2033C11.334 13.453 11.334 13.7562 11.334 14.1076V14.2667C11.334 14.64 11.334 14.8267 11.4066 14.9693C11.4706 15.0948 11.5725 15.1968 11.698 15.2607C11.8406 15.3333 12.0273 15.3333 12.4007 15.3333H14.2673C14.6407 15.3333 14.8274 15.3333 14.97 15.2607C15.0954 15.1968 15.1974 15.0948 15.2613 14.9693C15.334 14.8267 15.334 14.64 15.334 14.2667V12.4Z" fill="url(#paint0_linear_124_22993)"/>
<path d="M12.4007 16.6667C12.0273 16.6667 11.8406 16.6667 11.698 16.7393C11.5725 16.8032 11.4706 16.9052 11.4066 17.0307C11.334 17.1733 11.334 17.36 11.334 17.7333V21.8924C11.334 22.2438 11.334 22.547 11.3544 22.7967C11.3759 23.0603 11.4234 23.3224 11.552 23.5747C11.7437 23.951 12.0497 24.2569 12.426 24.4487C12.6783 24.5772 12.9404 24.6248 13.204 24.6463C13.4537 24.6667 13.7568 24.6667 14.1083 24.6667H14.2673C14.6407 24.6667 14.8274 24.6667 14.97 24.594C15.0954 24.5301 15.1974 24.4281 15.2613 24.3027C15.334 24.1601 15.334 23.9734 15.334 23.6L15.334 17.7333C15.334 17.36 15.334 17.1733 15.2613 17.0307C15.1974 16.9052 15.0954 16.8032 14.97 16.7393C14.8274 16.6667 14.6407 16.6667 14.2673 16.6667H12.4007Z" fill="url(#paint1_linear_124_22993)"/>
<path d="M16.6673 23.6C16.6673 23.9734 16.6673 24.1601 16.74 24.3027C16.8039 24.4281 16.9059 24.5301 17.0313 24.594C17.1739 24.6667 17.3606 24.6667 17.734 24.6667H21.893C22.2445 24.6667 22.5476 24.6667 22.7973 24.6463C23.0609 24.6248 23.323 24.5772 23.5753 24.4487C23.9516 24.2569 24.2576 23.951 24.4493 23.5747C24.5779 23.3224 24.6254 23.0603 24.6469 22.7967C24.6673 22.547 24.6673 22.2438 24.6673 21.8924V17.7333C24.6673 17.36 24.6673 17.1733 24.5947 17.0307C24.5307 16.9052 24.4288 16.8032 24.3033 16.7393C24.1607 16.6667 23.974 16.6667 23.6007 16.6667H17.734C17.3606 16.6667 17.1739 16.6667 17.0313 16.7393C16.9059 16.8032 16.8039 16.9052 16.74 17.0307C16.6673 17.1733 16.6673 17.36 16.6673 17.7333L16.6673 23.6Z" fill="url(#paint2_linear_124_22993)"/>
<path d="M24.6673 14.2667C24.6673 14.64 24.6673 14.8267 24.5947 14.9693C24.5307 15.0948 24.4288 15.1968 24.3033 15.2607C24.1607 15.3333 23.974 15.3333 23.6007 15.3333H17.734C17.3606 15.3333 17.1739 15.3333 17.0313 15.2607C16.9059 15.1968 16.8039 15.0948 16.74 14.9693C16.6673 14.8267 16.6673 14.64 16.6673 14.2667V12.4C16.6673 12.0266 16.6673 11.84 16.74 11.6973C16.8039 11.5719 16.9059 11.4699 17.0313 11.406C17.1739 11.3333 17.3606 11.3333 17.734 11.3333H21.893C22.2444 11.3333 22.5476 11.3333 22.7973 11.3537C23.0609 11.3753 23.323 11.4228 23.5753 11.5513C23.9516 11.7431 24.2576 12.049 24.4493 12.4254C24.5779 12.6776 24.6254 12.9398 24.6469 13.2033C24.6673 13.453 24.6673 13.7562 24.6673 14.1076V14.2667Z" fill="url(#paint3_linear_124_22993)"/>
<rect x="2" y="2" width="32" height="32" rx="16" stroke="#F7FAF9" stroke-width="4"/>
<defs>
<linearGradient id="paint0_linear_124_22993" x1="24.6673" y1="20.3333" x2="9.33398" y2="15.3333" gradientUnits="userSpaceOnUse">
<stop stop-color="#358859"/>
<stop offset="0.932292" stop-color="#479764"/>
</linearGradient>
<linearGradient id="paint1_linear_124_22993" x1="24.6673" y1="20.3333" x2="9.33398" y2="15.3333" gradientUnits="userSpaceOnUse">
<stop stop-color="#358859"/>
<stop offset="0.932292" stop-color="#479764"/>
</linearGradient>
<linearGradient id="paint2_linear_124_22993" x1="24.6673" y1="20.3333" x2="9.33398" y2="15.3333" gradientUnits="userSpaceOnUse">
<stop stop-color="#358859"/>
<stop offset="0.932292" stop-color="#479764"/>
</linearGradient>
<linearGradient id="paint3_linear_124_22993" x1="24.6673" y1="20.3333" x2="9.33398" y2="15.3333" gradientUnits="userSpaceOnUse">
<stop stop-color="#358859"/>
<stop offset="0.932292" stop-color="#479764"/>
</linearGradient>
</defs>
</svg>
