<svg width="36" height="36" viewBox="0 0 36 36" fill="none" xmlns="http://www.w3.org/2000/svg">
<rect x="2" y="2" width="32" height="32" rx="16" fill="#EFF5F2"/>
<path d="M19.3327 11.5126V14.2663C19.3327 14.6397 19.3327 14.8264 19.4053 14.969C19.4693 15.0944 19.5712 15.1964 19.6967 15.2603C19.8393 15.333 20.026 15.333 20.3993 15.333H23.153M23.3327 16.6585V21.4663C23.3327 22.5864 23.3327 23.1465 23.1147 23.5743C22.9229 23.9506 22.617 24.2566 22.2407 24.4484C21.8128 24.6663 21.2528 24.6663 20.1327 24.6663H15.866C14.7459 24.6663 14.1859 24.6663 13.758 24.4484C13.3817 24.2566 13.0757 23.9506 12.884 23.5743C12.666 23.1465 12.666 22.5864 12.666 21.4663V14.533C12.666 13.4129 12.666 12.8529 12.884 12.425C13.0757 12.0487 13.3817 11.7427 13.758 11.551C14.1859 11.333 14.7459 11.333 15.866 11.333H18.0072C18.4964 11.333 18.741 11.333 18.9711 11.3883C19.1752 11.4373 19.3703 11.5181 19.5493 11.6277C19.7511 11.7514 19.924 11.9244 20.2699 12.2703L22.3954 14.3957C22.7413 14.7417 22.9143 14.9146 23.038 15.1164C23.1476 15.2954 23.2284 15.4905 23.2774 15.6945C23.3327 15.9247 23.3327 16.1693 23.3327 16.6585Z" stroke="#629B81" stroke-width="1.33333" stroke-linecap="round" stroke-linejoin="round"/>
<rect x="2" y="2" width="32" height="32" rx="16" stroke="#F7FAF9" stroke-width="4"/>
</svg>
