<svg width="20" height="20" viewBox="0 0 20 20" fill="none" xmlns="http://www.w3.org/2000/svg">
<path d="M2.08464 10.0007H4.90294C5.47394 10.0007 5.99594 10.3233 6.2513 10.834C6.50666 11.3447 7.02866 11.6673 7.59966 11.6673H12.4029C12.9739 11.6673 13.4959 11.3447 13.7513 10.834C14.0067 10.3233 14.5287 10.0007 15.0997 10.0007H17.918M7.47344 3.33398H12.5292C13.4266 3.33398 13.8753 3.33398 14.2714 3.47062C14.6217 3.59145 14.9408 3.78865 15.2055 4.04794C15.5049 4.34115 15.7055 4.74248 16.1069 5.54513L17.9123 9.15607C18.0698 9.47106 18.1486 9.62855 18.2041 9.79361C18.2534 9.94019 18.289 10.091 18.3105 10.2442C18.3346 10.4167 18.3346 10.5928 18.3346 10.9449V12.6673C18.3346 14.0674 18.3346 14.7675 18.0622 15.3023C17.8225 15.7727 17.44 16.1552 16.9696 16.3948C16.4348 16.6673 15.7348 16.6673 14.3346 16.6673H5.66797C4.26784 16.6673 3.56777 16.6673 3.03299 16.3948C2.56259 16.1552 2.18014 15.7727 1.94045 15.3023C1.66797 14.7675 1.66797 14.0674 1.66797 12.6673V10.9449C1.66797 10.5928 1.66797 10.4167 1.69211 10.2442C1.71356 10.091 1.74917 9.94019 1.79849 9.79361C1.85402 9.62855 1.93277 9.47105 2.09026 9.15607L3.89573 5.54513C4.29706 4.74248 4.49772 4.34115 4.79709 4.04794C5.06183 3.78865 5.3809 3.59145 5.73121 3.47062C6.12735 3.33398 6.57604 3.33398 7.47344 3.33398Z" stroke="#70707B" stroke-width="1.6" stroke-linecap="round" stroke-linejoin="round"/>
</svg>
