<svg width="16" height="16" viewBox="0 0 16 16" fill="none" xmlns="http://www.w3.org/2000/svg">
<path d="M13.3341 9.99998C13.3341 9.63179 13.0357 9.33331 12.6675 9.33331C12.2993 9.33331 12.0008 9.63179 12.0008 9.99998V11.3333H10.6675C10.2993 11.3333 10.0008 11.6318 10.0008 12C10.0008 12.3682 10.2993 12.6666 10.6675 12.6666H12.0008V14C12.0008 14.3682 12.2993 14.6666 12.6675 14.6666C13.0357 14.6666 13.3341 14.3682 13.3341 14V12.6666H14.6675C15.0357 12.6666 15.3341 12.3682 15.3341 12C15.3341 11.6318 15.0357 11.3333 14.6675 11.3333H13.3341V9.99998Z" fill="#D1D1D6"/>
<path fill-rule="evenodd" clip-rule="evenodd" d="M8.12147 9.44231C8.30964 9.53818 8.46262 9.69116 8.55849 9.87932C8.66054 10.0796 8.66757 10.2984 8.66749 10.5179C8.66749 10.5231 8.66748 10.5282 8.66748 10.5333C8.66748 11.5162 8.66713 12.4991 8.66749 13.4821C8.66752 13.5615 8.66755 13.6563 8.66073 13.7399C8.65282 13.8367 8.63252 13.9753 8.55849 14.1206C8.46262 14.3088 8.30964 14.4618 8.12147 14.5577C7.97618 14.6317 7.83752 14.652 7.74071 14.6599C7.65716 14.6667 7.56232 14.6667 7.48291 14.6667C5.60595 14.666 3.72899 14.666 1.85202 14.6667C1.77252 14.6667 1.67747 14.6667 1.59372 14.6598C1.49657 14.6519 1.35763 14.6314 1.21211 14.557C1.02371 14.4607 0.870331 14.3066 0.774872 14.1178C0.701338 13.9723 0.681396 13.8337 0.673817 13.7364C0.667305 13.6527 0.667775 13.5579 0.668167 13.4789C0.671604 12.7861 0.650949 12.0435 0.92122 11.391C1.25953 10.5743 1.90845 9.92536 2.72521 9.58705C3.06501 9.4463 3.42386 9.38792 3.82969 9.36023C4.22436 9.3333 4.7093 9.33331 5.31047 9.33331C6.03462 9.33331 6.75877 9.33358 7.48291 9.33331C7.70242 9.33322 7.9212 9.34026 8.12147 9.44231Z" fill="#D1D1D6"/>
<path fill-rule="evenodd" clip-rule="evenodd" d="M9.71619 1.94368C9.85434 1.60239 10.243 1.43771 10.5843 1.57586C11.8047 2.06985 12.6675 3.26669 12.6675 4.66665C12.6675 6.0666 11.8047 7.26344 10.5843 7.75743C10.243 7.89558 9.85434 7.73091 9.71619 7.38962C9.57804 7.04833 9.74272 6.65967 10.084 6.52152C10.8182 6.22432 11.3342 5.50494 11.3342 4.66665C11.3342 3.82835 10.8182 3.10897 10.084 2.81178C9.74272 2.67363 9.57804 2.28496 9.71619 1.94368Z" fill="#D1D1D6"/>
<path fill-rule="evenodd" clip-rule="evenodd" d="M3.00082 4.66665C3.00082 2.8257 4.4932 1.33331 6.33415 1.33331C8.1751 1.33331 9.66748 2.8257 9.66748 4.66665C9.66748 6.5076 8.1751 7.99998 6.33415 7.99998C4.4932 7.99998 3.00082 6.5076 3.00082 4.66665Z" fill="#D1D1D6"/>
</svg>
