<svg width="20" height="20" viewBox="0 0 20 20" fill="none" xmlns="http://www.w3.org/2000/svg">
<g clip-path="url(#clip0_258_35834)">
<path d="M7.08464 12.916L12.918 7.08266M7.5013 3.33268V1.66602M12.5013 16.666V18.3327M3.33464 7.49935H1.66797M16.668 12.4993H18.3346M4.09648 4.09453L2.91797 2.91602M15.9061 15.9041L17.0847 17.0826M10.0013 14.7133L8.23356 16.4811C6.93182 17.7828 4.82127 17.7828 3.51952 16.4811C2.21777 15.1793 2.21777 13.0688 3.51952 11.767L5.28729 9.99928M14.7154 9.99928L16.4831 8.23151C17.7849 6.92976 17.7849 4.81921 16.4831 3.51746C15.1814 2.21572 13.0708 2.21572 11.7691 3.51746L10.0013 5.28523" stroke="#70707B" stroke-width="1.6" stroke-linecap="round" stroke-linejoin="round"/>
</g>
<defs>
<clipPath id="clip0_258_35834">
<rect width="20" height="20" fill="white"/>
</clipPath>
</defs>
</svg>
