<svg width="48" height="48" viewBox="0 0 48 48" fill="none" xmlns="http://www.w3.org/2000/svg">
<path d="M45 24C45 26.7578 44.4568 29.4885 43.4015 32.0364C42.3461 34.5842 40.7993 36.8992 38.8492 38.8492C36.8992 40.7993 34.5842 42.3461 32.0364 43.4015C29.4885 44.4568 26.7578 45 24 45C21.2422 45 18.5115 44.4568 15.9636 43.4015C13.4158 42.3461 11.1008 40.7993 9.15075 38.8492C7.20072 36.8992 5.65388 34.5842 4.59853 32.0363C3.54318 29.4885 3 26.7578 3 24C3 21.2422 3.54318 18.5115 4.59853 15.9636C5.65388 13.4158 7.20073 11.1008 9.15076 9.15075C11.1008 7.20072 13.4158 5.65387 15.9637 4.59853C18.5115 3.54318 21.2423 3 24 3C26.7578 3 29.4885 3.54318 32.0364 4.59853C34.5842 5.65388 36.8992 7.20073 38.8493 9.15077C40.7993 11.1008 42.3461 13.4158 43.4015 15.9637C44.4568 18.5115 45 21.2423 45 24L45 24Z" stroke="#F2F4F7" stroke-width="6" stroke-linecap="round" stroke-linejoin="round"/>
<path d="M15.1075 4.97571C18.6634 3.31357 22.614 2.68131 26.5111 3.15068C30.4082 3.62004 34.0957 5.17223 37.1553 7.63115C40.2148 10.0901 42.524 13.3573 43.8208 17.0621C45.1176 20.7669 45.3501 24.761 44.492 28.5913" stroke="url(#paint0_linear_3_13484)" stroke-width="6" stroke-linecap="round" stroke-linejoin="round"/>
<defs>
<linearGradient id="paint0_linear_3_13484" x1="21" y1="1.5" x2="44.5" y2="23.5" gradientUnits="userSpaceOnUse">
<stop stop-color="#95C6AF"/>
<stop offset="1" stop-color="#F2F4F7"/>
</linearGradient>
</defs>
</svg>
