<svg width="16" height="16" viewBox="0 0 16 16" fill="none" xmlns="http://www.w3.org/2000/svg">
<path opacity="0.4" d="M8.66732 4.66667L8.21844 3.76892C7.89738 3.12679 7.73685 2.80573 7.49735 2.57116C7.28556 2.36373 7.03031 2.20597 6.75006 2.10931C6.43315 2 6.07419 2 5.35628 2H4.00065C3.38067 2 3.07068 2 2.81635 2.06815C2.12616 2.25308 1.58707 2.79218 1.40213 3.48236C1.33398 3.7367 1.33398 4.04669 1.33398 4.66667V4.66667" stroke="#3F3F46" stroke-width="1.4" stroke-linecap="round" stroke-linejoin="round"/>
<path d="M1.33398 4.66669H11.4673C12.5874 4.66669 13.1475 4.66669 13.5753 4.88467C13.9516 5.07642 14.2576 5.38238 14.4493 5.75871C14.6673 6.18653 14.6673 6.74658 14.6673 7.86669V10.8C14.6673 11.9201 14.6673 12.4802 14.4493 12.908C14.2576 13.2843 13.9516 13.5903 13.5753 13.782C13.1475 14 12.5874 14 11.4673 14H4.53398C3.41388 14 2.85383 14 2.426 13.782C2.04968 13.5903 1.74372 13.2843 1.55197 12.908C1.33398 12.4802 1.33398 11.9201 1.33398 10.8V4.66669Z" stroke="#3F3F46" stroke-width="1.4" stroke-linecap="round" stroke-linejoin="round"/>
</svg>
