<svg width="32" height="32" viewBox="0 0 32 32" fill="none" xmlns="http://www.w3.org/2000/svg">
<path opacity="0.12" d="M4 21.0667C4 18.8265 4 17.7064 4.43597 16.8508C4.81947 16.0981 5.43139 15.4862 6.18404 15.1027C7.03969 14.6667 8.15979 14.6667 10.4 14.6667H21.6C23.8402 14.6667 24.9603 14.6667 25.816 15.1027C26.5686 15.4862 27.1805 16.0981 27.564 16.8508C28 17.7064 28 18.8265 28 21.0667V21.6001C28 23.8403 28 24.9604 27.564 25.816C27.1805 26.5687 26.5686 27.1806 25.816 27.5641C24.9603 28.0001 23.8402 28.0001 21.6 28.0001H10.4C8.15979 28.0001 7.03969 28.0001 6.18404 27.5641C5.43139 27.1806 4.81947 26.5687 4.43597 25.816C4 24.9604 4 23.8403 4 21.6001V21.0667Z" fill="#A0A0AB"/>
<path d="M22.6667 14.6667V10.6667C22.6667 6.98477 19.6819 4 16 4C12.3181 4 9.33333 6.98477 9.33333 10.6667V14.6667M10.4 28H21.6C23.8402 28 24.9603 28 25.816 27.564C26.5686 27.1805 27.1805 26.5686 27.564 25.816C28 24.9603 28 23.8402 28 21.6V21.0667C28 18.8265 28 17.7064 27.564 16.8507C27.1805 16.0981 26.5686 15.4861 25.816 15.1026C24.9603 14.6667 23.8402 14.6667 21.6 14.6667H10.4C8.15979 14.6667 7.03969 14.6667 6.18404 15.1026C5.43139 15.4861 4.81947 16.0981 4.43597 16.8507C4 17.7064 4 18.8265 4 21.0667V21.6C4 23.8402 4 24.9603 4.43597 25.816C4.81947 26.5686 5.43139 27.1805 6.18404 27.564C7.03969 28 8.15979 28 10.4 28Z" stroke="#A0A0AB" stroke-width="2.4" stroke-linecap="round" stroke-linejoin="round"/>
</svg>
