<svg width="20" height="20" viewBox="0 0 20 20" fill="none" xmlns="http://www.w3.org/2000/svg">
<path fill-rule="evenodd" clip-rule="evenodd" d="M5.0026 8.33398C4.08594 8.33398 3.33594 9.08398 3.33594 10.0007C3.33594 10.9173 4.08594 11.6673 5.0026 11.6673C5.91927 11.6673 6.66927 10.9173 6.66927 10.0007C6.66927 9.08398 5.91927 8.33398 5.0026 8.33398V8.33398ZM15.0026 8.33398C14.0859 8.33398 13.3359 9.08398 13.3359 10.0007C13.3359 10.9173 14.0859 11.6673 15.0026 11.6673C15.9193 11.6673 16.6693 10.9173 16.6693 10.0007C16.6693 9.08398 15.9193 8.33398 15.0026 8.33398V8.33398ZM10.0026 8.33398C9.08594 8.33398 8.33594 9.08398 8.33594 10.0007C8.33594 10.9173 9.08594 11.6673 10.0026 11.6673C10.9193 11.6673 11.6693 10.9173 11.6693 10.0007C11.6693 9.08398 10.9193 8.33398 10.0026 8.33398V8.33398Z" fill="#969696"/>
</svg>
