<svg width="28" height="28" viewBox="0 0 28 28" fill="none" xmlns="http://www.w3.org/2000/svg">
<rect width="28" height="28" rx="4" fill="#EFF1F5"/>
<g clip-path="url(#clip0_36_45875)">
<path d="M11.6654 16.334L16.332 11.6673M11.9987 8.66732V7.33398M15.9987 19.334V20.6673M8.66536 12.0007H7.33203M19.332 16.0007H20.6654M9.27484 9.27679L8.33203 8.33398M18.7226 18.7244L19.6654 19.6673M13.9987 17.7718L12.5845 19.186C11.5431 20.2274 9.85467 20.2274 8.81327 19.186C7.77187 18.1446 7.77187 16.4562 8.81327 15.4148L10.2275 14.0006M17.77 14.0006L19.1842 12.5864C20.2256 11.545 20.2256 9.85654 19.1842 8.81514C18.1428 7.77374 16.4543 7.77374 15.4129 8.81514L13.9987 10.2294" stroke="#5D6B98" stroke-width="1.5" stroke-linecap="round" stroke-linejoin="round"/>
</g>
<defs>
<clipPath id="clip0_36_45875">
<rect width="16" height="16" fill="white" transform="translate(6 6)"/>
</clipPath>
</defs>
</svg>
