<svg width="100" height="100" viewBox="0 0 100 100" fill="none" xmlns="http://www.w3.org/2000/svg">
<path d="M100 50C100 77.6142 77.6142 100 50 100C22.3858 100 0 77.6142 0 50C0 22.3858 22.3858 0 50 0C77.6142 0 100 22.3858 100 50ZM10 50C10 72.0914 27.9086 90 50 90C72.0914 90 90 72.0914 90 50C90 27.9086 72.0914 10 50 10C27.9086 10 10 27.9086 10 50Z" fill="#F4F4F5"/>
<path d="M50 0C61.0067 1.31254e-07 71.7059 3.63187 80.4381 10.3323C89.1703 17.0328 95.4475 26.4274 98.2963 37.0591L88.637 39.6472C86.358 31.1419 81.3362 23.6262 74.3505 18.2659C67.3647 12.9055 58.8054 10 50 10V0Z" fill="#E4E4E7"/>
<path d="M98.2963 37.0591C100.856 46.6112 100.525 56.7077 97.3465 66.072C94.1677 75.4363 88.2836 83.6476 80.438 89.6677C72.5925 95.6878 63.138 99.2462 53.2701 99.893C43.4022 100.54 33.5641 98.2458 24.9999 93.3012L29.9999 84.641C36.8513 88.5966 44.7217 90.4318 52.6161 89.9144C60.5104 89.3969 68.074 86.5502 74.3504 81.7342C80.6268 76.9181 85.3342 70.349 87.8772 62.8576C90.4202 55.3662 90.6846 47.2889 88.637 39.6472L98.2963 37.0591Z" fill="#D1D1D6"/>
</svg>
