<svg width="52" height="52" viewBox="0 0 52 52" fill="none" xmlns="http://www.w3.org/2000/svg">
<circle cx="26" cy="26" r="26" fill="#00BA34"/>
<path fill-rule="evenodd" clip-rule="evenodd" d="M30.24 21.76C29.07 20.59 27.54 20 26 20V26L21.76 30.24C24.1 32.58 27.9 32.58 30.25 30.24C32.59 27.9 32.59 24.1 30.24 21.76ZM26 16C20.48 16 16 20.48 16 26C16 31.52 20.48 36 26 36C31.52 36 36 31.52 36 26C36 20.48 31.52 16 26 16ZM26 34C21.58 34 18 30.42 18 26C18 21.58 21.58 18 26 18C30.42 18 34 21.58 34 26C34 30.42 30.42 34 26 34Z" fill="white"/>
</svg>
