<svg width="12" height="12" viewBox="0 0 12 12" fill="none" xmlns="http://www.w3.org/2000/svg">
<path d="M6.66797 1.33268C6.66797 0.964492 6.36949 0.666016 6.0013 0.666016C5.63311 0.666016 5.33464 0.964492 5.33464 1.33268V5.33268H1.33464C0.966446 5.33268 0.667969 5.63116 0.667969 5.99935C0.667969 6.36754 0.966446 6.66602 1.33464 6.66602H5.33464V10.666C5.33464 11.0342 5.63311 11.3327 6.0013 11.3327C6.36949 11.3327 6.66797 11.0342 6.66797 10.666V6.66602H10.668C11.0362 6.66602 11.3346 6.36754 11.3346 5.99935C11.3346 5.63116 11.0362 5.33268 10.668 5.33268H6.66797V1.33268Z" fill="white"/>
</svg>
