<svg width="20" height="20" viewBox="0 0 20 20" fill="none" xmlns="http://www.w3.org/2000/svg">
<g clip-path="url(#clip0_329_39892)">
<path d="M7.08464 12.9165L12.918 7.08315M7.5013 3.33317V1.6665M12.5013 16.6665V18.3332M3.33464 7.49984H1.66797M16.668 12.4998H18.3346M4.09648 4.09502L2.91797 2.9165M15.9061 15.9046L17.0847 17.0831M10.0013 14.7138L8.23356 16.4816C6.93182 17.7833 4.82127 17.7833 3.51952 16.4816C2.21777 15.1798 2.21777 13.0693 3.51952 11.7675L5.28729 9.99976M14.7154 9.99976L16.4831 8.232C17.7849 6.93025 17.7849 4.8197 16.4831 3.51795C15.1814 2.2162 13.0708 2.2162 11.7691 3.51795L10.0013 5.28572" stroke="#FF9C66" stroke-width="1.6" stroke-linecap="round" stroke-linejoin="round"/>
</g>
<defs>
<clipPath id="clip0_329_39892">
<rect width="20" height="20" fill="white"/>
</clipPath>
</defs>
</svg>
