<svg width="20" height="20" viewBox="0 0 20 20" fill="none" xmlns="http://www.w3.org/2000/svg">
<g clip-path="url(#clip0_306_32961)">
<path d="M7.5013 9.99984L9.16797 11.6665L12.918 7.9165M14.919 4.16526C15.0906 4.58028 15.4199 4.91017 15.8347 5.0824L17.289 5.68482C17.704 5.85674 18.0338 6.1865 18.2057 6.60155C18.3776 7.01661 18.3776 7.48296 18.2057 7.89801L17.6037 9.35134C17.4317 9.76658 17.4315 10.2334 17.6043 10.6484L18.2052 12.1013C18.2904 12.3069 18.3343 12.5273 18.3343 12.7498C18.3344 12.9723 18.2906 13.1927 18.2054 13.3983C18.1203 13.6039 17.9954 13.7907 17.838 13.948C17.6807 14.1054 17.4938 14.2301 17.2882 14.3152L15.8349 14.9172C15.4199 15.0888 15.09 15.4182 14.9178 15.833L14.3154 17.2874C14.1435 17.7024 13.8138 18.0322 13.3987 18.2041C12.9837 18.376 12.5174 18.376 12.1023 18.2041L10.649 17.6021C10.234 17.4306 9.76782 17.431 9.35303 17.6031L7.89871 18.2046C7.4839 18.3762 7.01798 18.376 6.60328 18.2042C6.18857 18.0324 5.85901 17.7031 5.68698 17.2885L5.0844 15.8337C4.9128 15.4186 4.58342 15.0888 4.16867 14.9165L2.71436 14.3141C2.2995 14.1423 1.96985 13.8127 1.79787 13.3979C1.62589 12.9831 1.62566 12.5169 1.79722 12.102L2.39919 10.6486C2.57068 10.2336 2.57033 9.76738 2.39822 9.35257L1.79711 7.89716C1.71189 7.69159 1.668 7.47124 1.66797 7.2487C1.66793 7.02616 1.71175 6.8058 1.7969 6.6002C1.88206 6.3946 2.0069 6.2078 2.16428 6.05046C2.32165 5.89313 2.50849 5.76835 2.71411 5.68326L4.16738 5.08127C4.58203 4.90981 4.91171 4.58084 5.08406 4.16655L5.68645 2.71218C5.85837 2.29712 6.18812 1.96737 6.60315 1.79544C7.01819 1.62352 7.48453 1.62352 7.89957 1.79544L9.35284 2.39743C9.76789 2.56893 10.2341 2.56858 10.6488 2.39646L12.1038 1.79638C12.5188 1.62455 12.985 1.62459 13.4 1.79648C13.8149 1.96836 14.1446 2.29803 14.3166 2.71297L14.9191 4.16778L14.919 4.16526Z" stroke="#2E90FA" stroke-width="1.7" stroke-linecap="round" stroke-linejoin="round"/>
</g>
<defs>
<clipPath id="clip0_306_32961">
<rect width="20" height="20" fill="white"/>
</clipPath>
</defs>
</svg>
