<svg width="20" height="20" viewBox="0 0 20 20" fill="none" xmlns="http://www.w3.org/2000/svg">
<path fill-rule="evenodd" clip-rule="evenodd" d="M9.9974 1.66602C5.38906 1.66602 1.66406 5.39102 1.66406 9.99935C1.66406 14.6077 5.38906 18.3327 9.9974 18.3327C14.6057 18.3327 18.3307 14.6077 18.3307 9.99935C18.3307 5.39102 14.6057 1.66602 9.9974 1.66602ZM13.5807 13.5827C13.2557 13.9077 12.7307 13.9077 12.4057 13.5827L9.9974 11.1743L7.58906 13.5827C7.26406 13.9077 6.73906 13.9077 6.41406 13.5827C6.08906 13.2577 6.08906 12.7327 6.41406 12.4077L8.8224 9.99935L6.41406 7.59102C6.08906 7.26602 6.08906 6.74102 6.41406 6.41602C6.73906 6.09102 7.26406 6.09102 7.58906 6.41602L9.9974 8.82435L12.4057 6.41602C12.7307 6.09102 13.2557 6.09102 13.5807 6.41602C13.9057 6.74102 13.9057 7.26602 13.5807 7.59102L11.1724 9.99935L13.5807 12.4077C13.8974 12.7243 13.8974 13.2577 13.5807 13.5827Z" fill="#969696"/>
</svg>
