<svg width="20" height="20" viewBox="0 0 20 20" fill="none" xmlns="http://www.w3.org/2000/svg">
<path d="M11.6641 3.33301H3.33073C2.41025 3.33301 1.66406 4.0792 1.66406 4.99967V9.99967C1.66406 10.9201 2.41025 11.6663 3.33073 11.6663H3.7474C3.97751 11.6663 4.16406 11.4798 4.16406 11.2497V9.16634C4.16406 7.32539 5.65645 5.83301 7.4974 5.83301H12.9141C13.1442 5.83301 13.3307 5.64646 13.3307 5.41634V4.99967C13.3307 4.0792 12.5845 3.33301 11.6641 3.33301Z" fill="#A0A0AB"/>
<path fill-rule="evenodd" clip-rule="evenodd" d="M5.83073 9.16634C5.83073 8.24587 6.57692 7.49967 7.4974 7.49967H15.8307C16.7512 7.49967 17.4974 8.24587 17.4974 9.16634V14.1663C17.4974 15.0868 16.7512 15.833 15.8307 15.833H7.4974C6.57692 15.833 5.83073 15.0868 5.83073 14.1663V9.16634ZM13.3307 11.6663C13.3307 12.5868 12.5845 13.333 11.6641 13.333C10.7436 13.333 9.9974 12.5868 9.9974 11.6663C9.9974 10.7459 10.7436 9.99967 11.6641 9.99967C12.5845 9.99967 13.3307 10.7459 13.3307 11.6663Z" fill="#A0A0AB"/>
</svg>
