<svg width="20" height="20" viewBox="0 0 20 20" fill="none" xmlns="http://www.w3.org/2000/svg">
<path fill-rule="evenodd" clip-rule="evenodd" d="M12.5897 2.51926C12.7945 2.10712 13.2947 1.93904 13.7068 2.14386C15.2139 2.89285 16.2526 4.44952 16.2526 6.25033C16.2526 8.05113 15.2139 9.6078 13.7068 10.3568C13.2947 10.5616 12.7945 10.3935 12.5897 9.98139C12.3849 9.56924 12.5529 9.06908 12.9651 8.86426C13.9275 8.38599 14.5859 7.39429 14.5859 6.25033C14.5859 5.10636 13.9275 4.11466 12.9651 3.63639C12.5529 3.43157 12.3849 2.93141 12.5897 2.51926Z" fill="#A0A0AB"/>
<path fill-rule="evenodd" clip-rule="evenodd" d="M14.2434 13.6288C14.4331 13.2095 14.9269 13.0234 15.3462 13.2131C16.7444 13.8458 17.981 14.8664 18.9912 16.1521C19.2756 16.514 19.2127 17.0379 18.8508 17.3223C18.4889 17.6066 17.965 17.5437 17.6807 17.1818C16.8118 16.0759 15.7799 15.2387 14.6591 14.7315C14.2397 14.5418 14.0536 14.0481 14.2434 13.6288Z" fill="#A0A0AB"/>
<path fill-rule="evenodd" clip-rule="evenodd" d="M3.33594 6.25033C3.33594 3.71902 5.38797 1.66699 7.91928 1.66699C10.4506 1.66699 12.5026 3.71902 12.5026 6.25033C12.5026 8.78163 10.4506 10.8337 7.91928 10.8337C5.38797 10.8337 3.33594 8.78163 3.33594 6.25033Z" fill="#A0A0AB"/>
<path fill-rule="evenodd" clip-rule="evenodd" d="M1.01401 16.1521C2.75716 13.9335 5.18355 12.5003 7.91928 12.5003C10.655 12.5003 13.0814 13.9335 14.8245 16.1521C15.0216 16.403 15.0582 16.7444 14.9188 17.0313C14.7793 17.3182 14.4883 17.5003 14.1693 17.5003H1.66928C1.35026 17.5003 1.05924 17.3182 0.919785 17.0313C0.780329 16.7444 0.816914 16.403 1.01401 16.1521Z" fill="#A0A0AB"/>
</svg>
