<svg width="20" height="20" viewBox="0 0 20 20" fill="none" xmlns="http://www.w3.org/2000/svg">
<path d="M4 4.25H15.9997C17.1042 4.25 17.9996 5.14473 17.9997 6.24927L17.9997 6.49995C17.9997 6.73007 17.8131 6.91663 17.583 6.91663H2.41667C2.18656 6.91663 2.00001 6.73009 2.00001 6.49997L2 6.25006C1.99997 5.14546 2.89541 4.25 4 4.25Z" fill="#A0A0AB"/>
<path fill-rule="evenodd" clip-rule="evenodd" d="M2.41674 8.58329C2.18662 8.58329 2.00007 8.76985 2.00008 8.99997L2.00021 13.7499C2.00025 14.8545 2.89566 15.7498 4.00019 15.7499L15.9999 15.75C17.1045 15.75 17.9999 14.8554 17.9999 13.7508L17.9998 8.99995C17.9998 8.76983 17.8132 8.58329 17.5831 8.58329H2.41674ZM5.49967 10.4166C5.03944 10.4166 4.66634 10.7897 4.66634 11.25C4.66634 11.7102 5.03944 12.0833 5.49967 12.0833H7.99967C8.45991 12.0833 8.83301 11.7102 8.83301 11.25C8.83301 10.7897 8.45991 10.4166 7.99967 10.4166H5.49967Z" fill="#A0A0AB"/>
</svg>
