<svg width="20" height="20" viewBox="0 0 20 20" fill="none" xmlns="http://www.w3.org/2000/svg">
<g clip-path="url(#clip0_4_78622)">
<path d="M10.0013 12.5001C11.382 12.5001 12.5013 11.3808 12.5013 10.0001C12.5013 8.61937 11.382 7.50008 10.0013 7.50008C8.62059 7.50008 7.5013 8.61937 7.5013 10.0001C7.5013 11.3808 8.62059 12.5001 10.0013 12.5001Z" stroke="#70707B" stroke-width="1.4" stroke-linecap="round" stroke-linejoin="round"/>
<path d="M15.6074 12.2728C15.5065 12.5013 15.4764 12.7548 15.521 13.0005C15.5656 13.2463 15.6827 13.4731 15.8574 13.6516L15.9028 13.6971C16.0437 13.8378 16.1554 14.0049 16.2317 14.1888C16.3079 14.3727 16.3472 14.5699 16.3472 14.769C16.3472 14.9681 16.3079 15.1653 16.2317 15.3492C16.1554 15.5332 16.0437 15.7003 15.9028 15.841C15.7621 15.9819 15.595 16.0936 15.4111 16.1699C15.2271 16.2461 15.03 16.2854 14.8308 16.2854C14.6317 16.2854 14.4346 16.2461 14.2506 16.1699C14.0667 16.0936 13.8996 15.9819 13.7589 15.841L13.7134 15.7955C13.5349 15.6209 13.3081 15.5037 13.0624 15.4592C12.8166 15.4146 12.5631 15.4447 12.3346 15.5455C12.1106 15.6416 11.9195 15.801 11.7849 16.0043C11.6503 16.2075 11.578 16.4457 11.5771 16.6895V16.8183C11.5771 17.2201 11.4174 17.6055 11.1333 17.8896C10.8491 18.1738 10.4638 18.3334 10.0619 18.3334C9.66007 18.3334 9.27468 18.1738 8.99053 17.8896C8.70639 17.6055 8.54676 17.2201 8.54676 16.8183V16.7501C8.54089 16.4993 8.45973 16.2561 8.31381 16.0521C8.1679 15.8481 7.96398 15.6927 7.72858 15.6061C7.50008 15.5053 7.24661 15.4752 7.00086 15.5198C6.7551 15.5643 6.52833 15.6815 6.34979 15.8561L6.30433 15.9016C6.16362 16.0425 5.99651 16.1542 5.81258 16.2305C5.62864 16.3067 5.43148 16.346 5.23236 16.346C5.03325 16.346 4.83609 16.3067 4.65215 16.2305C4.46821 16.1542 4.30111 16.0425 4.16039 15.9016C4.01952 15.7609 3.90776 15.5938 3.83151 15.4098C3.75527 15.2259 3.71602 15.0287 3.71602 14.8296C3.71602 14.6305 3.75527 14.4334 3.83151 14.2494C3.90776 14.0655 4.01952 13.8984 4.16039 13.7577L4.20585 13.7122C4.3805 13.5337 4.49765 13.3069 4.54221 13.0611C4.58677 12.8154 4.55669 12.5619 4.45585 12.3334C4.35982 12.1093 4.20036 11.9183 3.99711 11.7836C3.79386 11.649 3.55569 11.5768 3.31191 11.5758H3.18312C2.78128 11.5758 2.39589 11.4162 2.11175 11.1321C1.8276 10.8479 1.66797 10.4625 1.66797 10.0607C1.66797 9.65884 1.8276 9.27346 2.11175 8.98931C2.39589 8.70517 2.78128 8.54554 3.18312 8.54554H3.2513C3.50206 8.53967 3.74525 8.45851 3.94926 8.31259C4.15327 8.16667 4.30866 7.96276 4.39524 7.72735C4.49609 7.49886 4.52617 7.24539 4.48161 6.99964C4.43705 6.75388 4.31989 6.52711 4.14524 6.34857L4.09979 6.30311C3.95891 6.1624 3.84716 5.99529 3.77091 5.81135C3.69466 5.62742 3.65541 5.43026 3.65541 5.23114C3.65541 5.03203 3.69466 4.83487 3.77091 4.65093C3.84716 4.46699 3.95891 4.29989 4.09979 4.15917C4.2405 4.0183 4.40761 3.90654 4.59154 3.83029C4.77548 3.75405 4.97264 3.7148 5.17176 3.7148C5.37087 3.7148 5.56803 3.75405 5.75197 3.83029C5.93591 3.90654 6.10301 4.0183 6.24373 4.15917L6.28918 4.20463C6.46773 4.37928 6.6945 4.49643 6.94025 4.54099C7.186 4.58555 7.43947 4.55547 7.66797 4.45463H7.72858C7.95264 4.35859 8.14374 4.19914 8.27834 3.99589C8.41295 3.79264 8.48518 3.55447 8.48615 3.31069V3.1819C8.48615 2.78006 8.64578 2.39467 8.92993 2.11053C9.21407 1.82638 9.59946 1.66675 10.0013 1.66675C10.4031 1.66675 10.7885 1.82638 11.0727 2.11053C11.3568 2.39467 11.5165 2.78006 11.5165 3.1819V3.25008C11.5174 3.49386 11.5897 3.73203 11.7243 3.93528C11.8589 4.13853 12.05 4.29799 12.274 4.39402C12.5025 4.49487 12.756 4.52495 13.0017 4.48039C13.2475 4.43583 13.4743 4.31867 13.6528 4.14402L13.6983 4.09857C13.839 3.95769 14.0061 3.84594 14.19 3.76969C14.374 3.69344 14.5711 3.65419 14.7702 3.65419C14.9694 3.65419 15.1665 3.69344 15.3505 3.76969C15.5344 3.84594 15.7015 3.95769 15.8422 4.09857C15.9831 4.23928 16.0948 4.40639 16.1711 4.59032C16.2473 4.77426 16.2866 4.97142 16.2866 5.17054C16.2866 5.36965 16.2473 5.56681 16.1711 5.75075C16.0948 5.93469 15.9831 6.10179 15.8422 6.24251L15.7968 6.28796C15.6221 6.46651 15.505 6.69328 15.4604 6.93903C15.4158 7.18478 15.4459 7.43825 15.5468 7.66675V7.72735C15.6428 7.95142 15.8022 8.14252 16.0055 8.27712C16.2087 8.41172 16.4469 8.48396 16.6907 8.48493H16.8195C17.2213 8.48493 17.6067 8.64456 17.8909 8.92871C18.175 9.21285 18.3346 9.59824 18.3346 10.0001C18.3346 10.4019 18.175 10.7873 17.8909 11.0715C17.6067 11.3556 17.2213 11.5152 16.8195 11.5152H16.7513C16.5075 11.5162 16.2694 11.5884 16.0661 11.723C15.8629 11.8576 15.7034 12.0487 15.6074 12.2728Z" stroke="#70707B" stroke-width="1.4" stroke-linecap="round" stroke-linejoin="round"/>
</g>
<defs>
<clipPath id="clip0_4_78622">
<rect width="20" height="20" fill="white"/>
</clipPath>
</defs>
</svg>
