<svg width="20" height="20" viewBox="0 0 20 20" fill="none" xmlns="http://www.w3.org/2000/svg">
<path d="M10 2C7.50714 2 5.5 4.039 5.5 6.57143V7.33333C4.675 7.33333 4 8.01905 4 8.85714V16.4762C4 17.3143 4.675 18 5.5 18H14.5C15.325 18 16 17.3143 16 16.4762V8.85714C16 8.01905 15.325 7.33333 14.5 7.33333V6.57143C14.5 4.039 12.4929 2 10 2ZM10 3.52381C11.7071 3.52381 13 4.83719 13 6.57143V7.33333H7V6.57143C7 4.83719 8.29286 3.52381 10 3.52381ZM10 11.1429C10.825 11.1429 11.5 11.8286 11.5 12.6667C11.5 13.5048 10.825 14.1905 10 14.1905C9.175 14.1905 8.5 13.5048 8.5 12.6667C8.5 11.8286 9.175 11.1429 10 11.1429Z" fill="#A0A0AB"/>
</svg>
