<svg width="14" height="14" viewBox="0 0 14 14" fill="none" xmlns="http://www.w3.org/2000/svg">
<g clip-path="url(#clip0_1_19511)">
<path opacity="0.12" d="M7.0013 12.8333C10.223 12.8333 12.8346 10.2217 12.8346 6.99999C12.8346 3.77833 10.223 1.16666 7.0013 1.16666C3.77964 1.16666 1.16797 3.77833 1.16797 6.99999C1.16797 10.2217 3.77964 12.8333 7.0013 12.8333Z" fill="#717BBC"/>
<path d="M5.3038 5.24999C5.44095 4.86013 5.71164 4.53139 6.06794 4.32198C6.42424 4.11258 6.84316 4.03604 7.25049 4.10591C7.65782 4.17577 8.02728 4.38755 8.29343 4.70371C8.55958 5.01988 8.70525 5.42004 8.70464 5.83332C8.70464 6.99999 6.95464 7.58332 6.95464 7.58332M7.0013 9.91666H7.00714M12.8346 6.99999C12.8346 10.2217 10.223 12.8333 7.0013 12.8333C3.77964 12.8333 1.16797 10.2217 1.16797 6.99999C1.16797 3.77833 3.77964 1.16666 7.0013 1.16666C10.223 1.16666 12.8346 3.77833 12.8346 6.99999Z" stroke="#717BBC" stroke-width="1.4" stroke-linecap="round" stroke-linejoin="round"/>
</g>
<defs>
<clipPath id="clip0_1_19511">
<rect width="14" height="14" fill="white"/>
</clipPath>
</defs>
</svg>
