<svg width="46" height="46" viewBox="0 0 46 46" fill="none" xmlns="http://www.w3.org/2000/svg">
<rect x="3" y="3" width="40" height="40" rx="20" fill="#F4F4F5"/>
<path d="M19.6641 26.3333L22.9974 23M22.9974 23L26.3307 26.3333M22.9974 23V30.5M29.6641 26.9524C30.682 26.1117 31.3307 24.8399 31.3307 23.4167C31.3307 20.8854 29.2787 18.8333 26.7474 18.8333C26.5653 18.8333 26.3949 18.7383 26.3025 18.5814C25.2158 16.7374 23.2094 15.5 20.9141 15.5C17.4623 15.5 14.6641 18.2982 14.6641 21.75C14.6641 23.4718 15.3603 25.0309 16.4865 26.1613" stroke="#51525C" stroke-width="1.66667" stroke-linecap="round" stroke-linejoin="round"/>
<rect x="3" y="3" width="40" height="40" rx="20" stroke="#FAFAFA" stroke-width="6"/>
</svg>
