<svg width="32" height="32" viewBox="0 0 32 32" fill="none" xmlns="http://www.w3.org/2000/svg">
<path d="M30.5827 16C30.5827 24.0542 24.0535 30.5834 15.9993 30.5834M30.5827 16C30.5827 7.94587 24.0535 1.41669 15.9993 1.41669M30.5827 16C28.5953 18.9812 25.0558 20.5558 21.2915 21.2921M15.9993 30.5834C7.9452 30.5834 1.41602 24.0542 1.41602 16M15.9993 30.5834C18.9805 28.5959 20.5551 25.0565 21.2915 21.2921M1.41602 16C1.41602 7.94587 7.9452 1.41669 15.9993 1.41669M1.41602 16C4.33268 20.375 10.5919 21.7207 15.9993 21.8334C17.7221 21.7975 19.5314 21.6364 21.2915 21.2921M15.9993 1.41669C20.3743 4.33335 21.72 10.5926 21.8327 16C21.7968 17.7228 21.6357 19.5321 21.2915 21.2921" stroke="#D1D1D6" stroke-width="2" stroke-linecap="round" stroke-linejoin="round"/>
</svg>
