<svg width="16" height="16" viewBox="0 0 16 16" fill="none" xmlns="http://www.w3.org/2000/svg">
<path d="M4.81999 9.64642C4.70469 9.53112 4.64704 9.47347 4.57976 9.43224C4.52011 9.39569 4.45508 9.36875 4.38706 9.35242C4.31033 9.334 4.2288 9.334 4.06574 9.334H3.5579C3.35489 9.33387 3.18021 9.33376 3.02311 9.35865C2.16732 9.49419 1.49614 10.1654 1.3606 11.0212C1.33572 11.1783 1.33583 11.3529 1.33596 11.556L1.33596 11.6557C1.33586 11.9737 1.33578 12.2093 1.36881 12.4178C1.54953 13.5589 2.44444 14.4538 3.58548 14.6345C3.79399 14.6675 4.02965 14.6675 4.34763 14.6674H11.6577C11.9756 14.6675 12.2113 14.6675 12.4198 14.6345C13.5608 14.4538 14.4558 13.5589 14.6365 12.4178C14.6695 12.2094 14.6694 11.9737 14.6693 11.6558L14.6693 11.556C14.6695 11.3529 14.6696 11.1783 14.6447 11.0212C14.5091 10.1654 13.838 9.49419 12.9822 9.35865C12.8251 9.33376 12.6504 9.33387 12.4474 9.334H11.9395C11.7765 9.334 11.695 9.334 11.6182 9.35242C11.5502 9.36875 11.4852 9.39569 11.4255 9.43224C11.3583 9.47347 11.3006 9.53112 11.1853 9.64642L9.41686 11.4149C8.63581 12.1959 7.36948 12.1959 6.58843 11.4149L4.81999 9.64642Z" fill="#70707B"/>
<path d="M8.66931 2.00065C8.66931 1.63246 8.37083 1.33398 8.00264 1.33398C7.63445 1.33398 7.33598 1.63246 7.33598 2.00065V8.39118L5.14072 6.19591C4.88037 5.93556 4.45826 5.93556 4.19791 6.19591C3.93756 6.45626 3.93756 6.87837 4.19791 7.13872L7.53124 10.4721C7.79159 10.7324 8.2137 10.7324 8.47405 10.4721L11.8074 7.13872C12.0677 6.87837 12.0677 6.45626 11.8074 6.19591C11.547 5.93556 11.1249 5.93556 10.8646 6.19591L8.66931 8.39118V2.00065Z" fill="#70707B"/>
</svg>
