<svg width="5" height="8" viewBox="0 0 5 8" fill="none" xmlns="http://www.w3.org/2000/svg">
<path d="M4.35355 4.35355C4.54882 4.15829 4.54882 3.84171 4.35355 3.64645L1.17156 0.464476C0.976298 0.269214 0.659716 0.269215 0.464454 0.464478C0.269193 0.659741 0.269194 0.976323 0.464457 1.17158L3.29289 4L0.464475 6.82844C0.269214 7.0237 0.269215 7.34028 0.464478 7.53555C0.659741 7.73081 0.976323 7.73081 1.17158 7.53554L4.35355 4.35355ZM3.25 4.5C3.52614 4.5 3.75 4.27614 3.75 4C3.75 3.72386 3.52614 3.5 3.25 3.5L3.25 4.5ZM3.75 3.5C3.47386 3.5 3.25 3.72386 3.25 4C3.25 4.27614 3.47386 4.5 3.75 4.5L3.75 3.5ZM3 4.5L3.25 4.5L3.25 3.5L3 3.5L3 4.5ZM3.75 4.5L4 4.5L4 3.5L3.75 3.5L3.75 4.5Z" fill="#D1D1D6"/>
</svg>
