<svg width="20" height="20" viewBox="0 0 20 20" fill="none" xmlns="http://www.w3.org/2000/svg">
<path fill-rule="evenodd" clip-rule="evenodd" d="M14.168 1.66665C14.168 1.20641 13.7949 0.833313 13.3346 0.833313C12.8744 0.833313 12.5013 1.20641 12.5013 1.66665V2.49998H7.5013V1.66665C7.5013 1.20641 7.12821 0.833313 6.66797 0.833313C6.20773 0.833313 5.83464 1.20641 5.83464 1.66665V2.50133C5.43842 2.50406 5.09212 2.51224 4.79145 2.53681C4.32303 2.57508 3.89245 2.65722 3.488 2.86329C2.86079 3.18287 2.35086 3.6928 2.03128 4.32001C1.82521 4.72446 1.74307 5.15504 1.7048 5.62346C1.66795 6.07445 1.66796 6.62809 1.66797 7.29888V14.3677C1.66796 15.0385 1.66795 15.5922 1.7048 16.0432C1.74307 16.5116 1.82521 16.9422 2.03128 17.3466C2.35086 17.9738 2.86079 18.4838 3.488 18.8033C3.89245 19.0094 4.32303 19.0915 4.79145 19.1298C5.24244 19.1667 5.79607 19.1667 6.46687 19.1666H13.5357C14.2065 19.1667 14.7602 19.1667 15.2112 19.1298C15.6796 19.0915 16.1102 19.0094 16.5146 18.8033C17.1418 18.4838 17.6517 17.9738 17.9713 17.3466C18.1774 16.9422 18.2595 16.5116 18.2978 16.0432C18.3347 15.5922 18.3346 15.0385 18.3346 14.3677V7.29888C18.3346 6.62808 18.3347 6.07445 18.2978 5.62346C18.2595 5.15504 18.1774 4.72446 17.9713 4.32001C17.6517 3.6928 17.1418 3.18287 16.5146 2.86329C16.1102 2.65722 15.6796 2.57508 15.2112 2.53681C14.9105 2.51224 14.5642 2.50406 14.168 2.50133V1.66665ZM5.83464 4.99998V4.16812C5.46336 4.17072 5.17183 4.17795 4.92717 4.19794C4.56182 4.22779 4.37499 4.28189 4.24465 4.3483C3.93105 4.50809 3.67608 4.76306 3.51629 5.07666C3.44988 5.207 3.39578 5.39383 3.36593 5.75918C3.33529 6.13425 3.33464 6.6195 3.33464 7.33331V7.49998H16.668V7.33331C16.668 6.6195 16.6673 6.13425 16.6367 5.75918C16.6068 5.39383 16.5527 5.207 16.4863 5.07666C16.3265 4.76306 16.0716 4.50809 15.758 4.3483C15.6276 4.28189 15.4408 4.22779 15.0754 4.19794C14.8308 4.17795 14.5392 4.17072 14.168 4.16812V4.99998C14.168 5.46022 13.7949 5.83331 13.3346 5.83331C12.8744 5.83331 12.5013 5.46022 12.5013 4.99998V4.16665H7.5013V4.99998C7.5013 5.46022 7.12821 5.83331 6.66797 5.83331C6.20773 5.83331 5.83464 5.46022 5.83464 4.99998ZM10.3945 10.0986C10.6655 10.2436 10.8346 10.526 10.8346 10.8333V14.1666H11.043C11.5032 14.1666 11.8763 14.5397 11.8763 15C11.8763 15.4602 11.5032 15.8333 11.043 15.8333H8.95964C8.4994 15.8333 8.1263 15.4602 8.1263 15C8.1263 14.5397 8.4994 14.1666 8.95964 14.1666H9.16796V12.3884C8.79048 12.6068 8.30321 12.4968 8.05791 12.1289C7.80262 11.746 7.9061 11.2286 8.28904 10.9733L9.53904 10.1399C9.79475 9.96946 10.1235 9.95357 10.3945 10.0986Z" fill="#A0A0AB"/>
</svg>
