<svg width="40" height="40" viewBox="0 0 40 40" fill="none" xmlns="http://www.w3.org/2000/svg">
<path d="M37.5 20.0001C37.5 29.66 29.6687 37.5 20 37.5C10.3312 37.5 2.5 29.66 2.5 20.0001C2.5 10.3313 10.3312 2.50006 20 2.50006C29.6687 2.50006 37.5 10.3313 37.5 20.0001Z" fill="#283544"/>
<path d="M28.2026 15.5718C28.1071 15.6275 25.8338 16.8032 25.8338 19.4099C25.941 22.3827 28.7026 23.4252 28.75 23.4252C28.7026 23.4809 28.3331 24.8454 27.2383 26.2757C26.3696 27.5078 25.4053 28.7501 23.941 28.7501C22.5481 28.7501 22.0481 27.9289 20.441 27.9289C18.715 27.9289 18.2267 28.7501 16.9052 28.7501C15.441 28.7501 14.4052 27.4413 13.4891 26.2208C12.2989 24.6233 11.2872 22.1164 11.2515 19.7094C11.2274 18.4339 11.4899 17.1801 12.156 16.1151C13.0962 14.6284 14.7748 13.6191 16.6079 13.5858C18.0124 13.5417 19.2624 14.4844 20.1195 14.4844C20.941 14.4844 22.4767 13.5858 24.2143 13.5858C24.9643 13.5866 26.9643 13.7971 28.2026 15.5718ZM20.0008 13.3312C19.7508 12.1664 20.441 11.0015 21.0838 10.2585C21.9053 9.35996 23.2026 8.75006 24.3214 8.75006C24.3928 9.91487 23.9402 11.0573 23.1312 11.8893C22.4053 12.7878 21.1553 13.4643 20.0008 13.3312Z" fill="white"/>
</svg>
