<svg width="40" height="40" viewBox="0 0 40 40" fill="none" xmlns="http://www.w3.org/2000/svg">
<g clip-path="url(#clip0_1_19226)">
<path d="M37.5 20C37.5 10.335 29.665 2.5 20 2.5C10.335 2.5 2.5 10.335 2.5 20C2.5 28.7346 8.89946 35.9746 17.2656 37.2874V25.0586H12.8223V20H17.2656V16.1445C17.2656 11.7586 19.8783 9.33594 23.8756 9.33594C25.7897 9.33594 27.793 9.67774 27.793 9.67774V13.9844H25.5863C23.4125 13.9844 22.7344 15.3334 22.7344 16.7188V20H27.5879L26.812 25.0586H22.7344V37.2874C31.1005 35.9746 37.5 28.7346 37.5 20Z" fill="#1877F2"/>
<path d="M26.812 25.0586L27.5879 20H22.7344V16.7188C22.7344 15.3348 23.4125 13.9844 25.5863 13.9844H27.793V9.67773C27.793 9.67773 25.7904 9.33594 23.8756 9.33594C19.8783 9.33594 17.2656 11.7586 17.2656 16.1445V20H12.8223V25.0586H17.2656V37.2874C19.0775 37.5709 20.9225 37.5709 22.7344 37.2874V25.0586H26.812Z" fill="white"/>
</g>
<defs>
<clipPath id="clip0_1_19226">
<rect width="35" height="35" fill="white" transform="translate(2.5 2.5)"/>
</clipPath>
</defs>
</svg>
