<svg width="40" height="40" viewBox="0 0 40 40" fill="none" xmlns="http://www.w3.org/2000/svg">
<circle cx="20" cy="20.0001" r="17.5" fill="#1ED760"/>
<path d="M27.9554 27.0288C27.6564 27.5032 27.0186 27.636 26.5203 27.3513C22.5937 25.0742 17.6705 24.5619 11.8503 25.8143C11.2922 25.9281 10.7341 25.6056 10.6145 25.0742C10.4949 24.5429 10.8338 24.0116 11.3919 23.8977C17.7502 22.5125 23.2116 23.1007 27.5966 25.6625C28.095 25.9471 28.2544 26.5544 27.9554 27.0288ZM29.9885 22.7022C29.6098 23.2905 28.8125 23.4613 28.1946 23.1197C23.7099 20.482 16.8732 19.723 11.5712 21.26C10.8736 21.4498 10.1561 21.0893 9.95674 20.4441C9.75742 19.7799 10.1361 19.0968 10.8338 18.907C16.8931 17.1612 24.4274 17.9962 29.5899 21.0133C30.1679 21.3549 30.3672 22.114 29.9885 22.7022ZM30.1679 18.1859C24.7862 15.1497 15.9164 14.8651 10.774 16.3452C9.95674 16.5919 9.07973 16.1555 8.82061 15.3585C8.5615 14.5805 9.03987 13.7455 9.85708 13.4988C15.757 11.791 25.5636 12.1326 31.7425 15.6241C32.48 16.0416 32.7192 16.9525 32.2807 17.6546C31.8621 18.3757 30.9054 18.6224 30.1679 18.1859Z" fill="white"/>
</svg>
