<svg width="40" height="40" viewBox="0 0 40 40" fill="none" xmlns="http://www.w3.org/2000/svg">
<path opacity="0.4" d="M19.9994 34.5835C15.6244 31.6668 14.2787 25.4076 14.166 20.0001C14.2787 14.5927 15.6243 8.33348 19.9993 5.41681M5.41602 20.0001C8.33268 15.6251 14.5919 14.2795 19.9993 14.1668C25.4068 14.2795 31.666 15.6251 34.5827 20.0001" stroke="#51525C" stroke-width="2" stroke-linecap="round" stroke-linejoin="round"/>
<path d="M34.5827 20.0001C34.5827 28.0543 28.0535 34.5835 19.9993 34.5835M34.5827 20.0001C34.5827 11.946 28.0535 5.41681 19.9993 5.41681M34.5827 20.0001C32.5953 22.9813 29.0558 24.5559 25.2915 25.2922M19.9993 34.5835C11.9452 34.5835 5.41602 28.0543 5.41602 20.0001M19.9993 34.5835C22.9805 32.596 24.5551 29.0566 25.2915 25.2922M5.41602 20.0001C5.41602 11.946 11.9452 5.41681 19.9993 5.41681M5.41602 20.0001C8.33268 24.3751 14.5919 25.7208 19.9993 25.8335C21.7221 25.7976 23.5314 25.6365 25.2915 25.2922M19.9993 5.41681C24.3743 8.33347 25.72 14.5927 25.8327 20.0001C25.7968 21.7229 25.6357 23.5322 25.2915 25.2922" stroke="#51525C" stroke-width="2" stroke-linecap="round" stroke-linejoin="round"/>
</svg>
