<svg width="16" height="16" viewBox="0 0 16 16" fill="none" xmlns="http://www.w3.org/2000/svg">
<path fill-rule="evenodd" clip-rule="evenodd" d="M4.5071 2.00003L7.33464 2.00003C7.70283 2.00003 8.0013 2.29851 8.0013 2.6667C8.0013 3.03489 7.70283 3.33336 7.33464 3.33336H4.53464C3.96358 3.33336 3.57539 3.33388 3.27533 3.3584C2.98305 3.38228 2.83358 3.42556 2.72932 3.47869C2.47843 3.60652 2.27446 3.81049 2.14663 4.06138C2.0935 4.16564 2.05022 4.31511 2.02634 4.60739C2.00182 4.90745 2.0013 5.29564 2.0013 5.8667V11.4667C2.0013 12.0377 2.00182 12.4259 2.02634 12.726C2.05022 13.0183 2.0935 13.1678 2.14663 13.272C2.27446 13.5229 2.47843 13.7269 2.72932 13.8547C2.83358 13.9078 2.98305 13.9511 3.27533 13.975C3.57539 13.9995 3.96358 14 4.53464 14H10.1346C10.7057 14 11.0939 13.9995 11.3939 13.975C11.6862 13.9511 11.8357 13.9078 11.94 13.8547C12.1908 13.7269 12.3948 13.5229 12.5226 13.272C12.5758 13.1678 12.6191 13.0183 12.6429 12.726C12.6675 12.4259 12.668 12.0377 12.668 11.4667V8.6667C12.668 8.29851 12.9664 8.00003 13.3346 8.00003C13.7028 8.00003 14.0013 8.29851 14.0013 8.6667V11.4942C14.0013 12.0309 14.0013 12.4738 13.9718 12.8346C13.9412 13.2093 13.8755 13.5538 13.7107 13.8773C13.455 14.3791 13.047 14.7871 12.5453 15.0427C12.2217 15.2076 11.8773 15.2733 11.5025 15.3039C11.1417 15.3334 10.6988 15.3334 10.1622 15.3334H4.50709C3.97045 15.3334 3.52755 15.3334 3.16675 15.3039C2.79202 15.2733 2.44755 15.2076 2.12399 15.0427C1.62223 14.7871 1.21428 14.3791 0.958619 13.8773C0.793758 13.5538 0.728049 13.2093 0.697432 12.8346C0.667954 12.4738 0.667961 12.0309 0.667969 11.4942V5.83916C0.667961 5.30252 0.667954 4.85961 0.697432 4.49881C0.728049 4.12408 0.793758 3.77961 0.958619 3.45606C1.21428 2.95429 1.62223 2.54634 2.12399 2.29068C2.44755 2.12582 2.79202 2.06011 3.16675 2.02949C3.52755 2.00001 3.97046 2.00002 4.5071 2.00003Z" fill="#D1D1D6"/>
<path fill-rule="evenodd" clip-rule="evenodd" d="M11.8632 1.19529C12.6759 0.382656 13.9934 0.382658 14.806 1.19529C15.6187 2.00793 15.6187 3.32547 14.806 4.1381L8.43088 10.5133C8.41768 10.5265 8.4046 10.5396 8.39163 10.5526C8.2 10.7445 8.03104 10.9138 7.82735 11.0386C7.6484 11.1483 7.45331 11.2291 7.24924 11.2781C7.01694 11.3339 6.77778 11.3337 6.50651 11.3334C6.48815 11.3334 6.46964 11.3334 6.45098 11.3334H5.33462C4.96643 11.3334 4.66795 11.0349 4.66795 10.6667V9.55035C4.66795 9.53169 4.66793 9.51318 4.66792 9.49482C4.66766 9.22355 4.66744 8.98439 4.72321 8.75209C4.77221 8.54802 4.85301 8.35293 4.96267 8.17398C5.0875 7.97029 5.25677 7.80133 5.44876 7.6097C5.46176 7.59673 5.47486 7.58365 5.48806 7.57045L11.8632 1.19529Z" fill="#D1D1D6"/>
</svg>
