<svg width="14" height="14" viewBox="0 0 14 14" fill="none" xmlns="http://www.w3.org/2000/svg">
<g clip-path="url(#clip0_99_37551)">
<path opacity="0.12" d="M6.9974 12.8332C10.2191 12.8332 12.8307 10.2215 12.8307 6.99984C12.8307 3.77818 10.2191 1.1665 6.9974 1.1665C3.77573 1.1665 1.16406 3.77818 1.16406 6.99984C1.16406 10.2215 3.77573 12.8332 6.9974 12.8332Z" fill="#F04438"/>
<path d="M8.7474 5.24984L5.2474 8.74984M5.2474 5.24984L8.7474 8.74984M12.8307 6.99984C12.8307 10.2215 10.2191 12.8332 6.9974 12.8332C3.77573 12.8332 1.16406 10.2215 1.16406 6.99984C1.16406 3.77818 3.77573 1.1665 6.9974 1.1665C10.2191 1.1665 12.8307 3.77818 12.8307 6.99984Z" stroke="#F04438" stroke-width="1.2" stroke-linecap="round" stroke-linejoin="round"/>
</g>
<defs>
<clipPath id="clip0_99_37551">
<rect width="14" height="14" fill="white"/>
</clipPath>
</defs>
</svg>
