<svg width="390" height="159" viewBox="0 0 390 159" fill="none" xmlns="http://www.w3.org/2000/svg">
<g filter="url(#filter0_d_63_16508)">
<path d="M-12 121H403V146H-12V121Z" fill="#FAFAFA"/>
</g>
<path d="M182.388 60.3402C182.576 60.6781 183.002 60.7997 183.34 60.6117L188.846 57.5496C189.184 57.3617 189.305 56.9355 189.118 56.5976C188.93 56.2598 188.503 56.1382 188.166 56.3261L183.272 59.048L180.55 54.154C180.362 53.8161 179.935 53.6946 179.598 53.8825C179.26 54.0704 179.138 54.4966 179.326 54.8345L182.388 60.3402ZM224.234 41.6836C218.704 39.7185 209.979 38.2502 201.755 40.2633C193.478 42.2894 185.74 47.8411 182.327 59.808L183.673 60.192C186.936 48.751 194.256 43.5404 202.088 41.6232C209.974 39.693 218.411 41.1002 223.766 43.0028L224.234 41.6836Z" fill="#A0A0AB"/>
<path d="M41 80C41 75.5817 44.5817 72 49 72H228C232.418 72 236 75.5817 236 80V121H41V80Z" fill="#FAFAFA"/>
<circle cx="67.5" cy="96.5" r="17.5" fill="#F4F4F5"/>
<path d="M85 96.5C85 106.165 77.165 114 67.5 114C57.835 114 50 106.165 50 96.5C50 86.835 57.835 79 67.5 79C77.165 79 85 86.835 85 96.5ZM52.625 96.5C52.625 104.715 59.2848 111.375 67.5 111.375C75.7152 111.375 82.375 104.715 82.375 96.5C82.375 88.2848 75.7152 81.625 67.5 81.625C59.2848 81.625 52.625 88.2848 52.625 96.5Z" fill="#E4E4E7"/>
<path d="M83.6875 96.5C84.4124 96.5 85.0051 95.9115 84.9508 95.1887C84.7461 92.4649 83.9061 89.8203 82.4904 87.4702C80.8485 84.7444 78.4944 82.5179 75.6814 81.0302C72.8685 79.5425 69.7031 78.85 66.5259 79.0271C63.3487 79.2043 60.28 80.2443 57.6498 82.0354C55.0196 83.8266 52.9276 86.3009 51.5988 89.1923C50.27 92.0838 49.7547 95.2827 50.1084 98.4452C50.4621 101.608 51.6714 104.614 53.6062 107.14C55.2743 109.318 57.4272 111.069 59.8866 112.257C60.5393 112.572 61.3041 112.237 61.5696 111.562C61.8352 110.888 61.5004 110.131 60.852 109.807C58.835 108.799 57.068 107.343 55.6902 105.544C54.0457 103.397 53.0178 100.841 52.7172 98.1534C52.4165 95.4653 52.8545 92.7462 53.984 90.2885C55.1135 87.8308 56.8917 85.7276 59.1273 84.2051C61.363 82.6827 63.9714 81.7986 66.672 81.6481C69.3726 81.4975 72.0632 82.0862 74.4542 83.3507C76.8452 84.6152 78.8462 86.5077 80.2418 88.8247C81.4111 90.7658 82.1185 92.9433 82.3171 95.1892C82.381 95.9112 82.9626 96.5 83.6875 96.5Z" fill="#629B81"/>
<rect x="93" y="85" width="82" height="10" rx="5" fill="#F4F4F5"/>
<rect x="93" y="99" width="97" height="7" rx="3.5" fill="#F4F4F5"/>
<path d="M206 92L212 98L218 92" stroke="black" stroke-width="2" stroke-linecap="round" stroke-linejoin="round"/>
<g style="mix-blend-mode:multiply">
<rect x="225" y="10.9473" width="65.8903" height="67.053" rx="28" transform="rotate(-9.56464 225 10.9473)" fill="white"/>
<g clip-path="url(#clip0_63_16508)">
<rect width="63.4855" height="63.4855" transform="translate(227 12.5479) rotate(-9.56464)" fill="white"/>
<path d="M240.422 28.5274C239.684 24.1448 239.315 21.9535 239.885 20.1358C240.388 18.537 241.383 17.1381 242.729 16.1398C244.259 15.0048 246.45 14.6356 250.833 13.8971L259.211 12.4854C261.125 12.1629 262.082 12.0016 263.019 12.0661C263.85 12.1232 264.666 12.3108 265.439 12.6219C266.31 12.9727 267.101 13.5354 268.682 14.6608L278.4 21.5758C279.981 22.7012 280.772 23.2638 281.389 23.972C281.936 24.5999 282.381 25.3099 282.707 26.0761C283.075 26.9402 283.236 27.8972 283.559 29.8113L286.729 48.6229C287.467 53.0055 287.836 55.1968 287.266 57.0144C286.763 58.6133 285.768 60.0121 284.422 61.0105C282.892 62.1455 280.7 62.5147 276.318 63.2532L259.624 66.0662C255.241 66.8047 253.05 67.1739 251.232 66.6031C249.633 66.1009 248.234 65.1055 247.236 63.7595C246.101 62.2293 245.732 60.038 244.993 55.6554L240.422 28.5274Z" fill="#E4E4E7"/>
<path d="M264.515 12.3144L266.331 23.0887C266.577 24.5496 266.7 25.28 267.079 25.7901C267.411 26.2388 267.878 26.5706 268.411 26.738C269.016 26.9282 269.747 26.8052 271.208 26.559L281.982 24.7435M283.559 29.8113L286.729 48.6229C287.467 53.0055 287.836 55.1968 287.266 57.0144C286.763 58.6133 285.768 60.0121 284.422 61.0105C282.892 62.1455 280.7 62.5147 276.318 63.2532L259.624 66.0662C255.241 66.8047 253.05 67.1739 251.232 66.6031C249.633 66.1009 248.234 65.1055 247.236 63.7595C246.101 62.2293 245.732 60.038 244.993 55.6554L240.422 28.5274C239.684 24.1448 239.315 21.9535 239.885 20.1358C240.388 18.537 241.383 17.1381 242.729 16.1398C244.259 15.0048 246.45 14.6356 250.833 13.8971L259.211 12.4854C261.125 12.1629 262.082 12.0016 263.019 12.0661C263.85 12.1232 264.666 12.3108 265.439 12.6219C266.31 12.9727 267.101 13.5354 268.682 14.6608L278.4 21.5758C279.981 22.7012 280.772 23.2638 281.389 23.972C281.936 24.5999 282.381 25.3099 282.707 26.0761C283.075 26.9402 283.236 27.8972 283.559 29.8113Z" stroke="#E4E4E7" stroke-width="3" stroke-linecap="round" stroke-linejoin="round"/>
<path d="M259.659 35.3801C259.566 34.8279 259.519 34.5517 259.376 34.3589C259.251 34.1892 259.074 34.0638 258.873 34.0005C258.644 33.9286 258.368 33.9751 257.815 34.0681L257.58 34.1077C257.06 34.1952 256.612 34.2707 256.248 34.3631C255.863 34.4606 255.487 34.5963 255.146 34.8492C254.637 35.2266 254.261 35.7554 254.071 36.3598C253.944 36.7649 253.939 37.1646 253.973 37.5598C254.005 37.9342 254.08 38.3826 254.168 38.9025L254.207 39.1377C254.3 39.69 254.347 39.9661 254.49 40.159C254.616 40.3286 254.792 40.454 254.993 40.5173C255.222 40.5893 255.499 40.5428 256.051 40.4498L258.812 39.9847C259.364 39.8917 259.64 39.8452 259.833 39.7022C260.003 39.5764 260.128 39.4002 260.192 39.1987C260.264 38.9697 260.217 38.6935 260.124 38.1412L259.659 35.3801Z" fill="url(#paint0_linear_63_16508)"/>
<path d="M256.383 42.422C255.831 42.515 255.555 42.5615 255.362 42.7045C255.192 42.8303 255.067 43.0066 255.003 43.2081C254.931 43.4371 254.978 43.7132 255.071 44.2655L256.107 50.4174C256.195 50.9372 256.27 51.3857 256.362 51.75C256.46 52.1345 256.596 52.5104 256.849 52.8515C257.226 53.3604 257.755 53.7367 258.359 53.9266C258.764 54.0539 259.164 54.0589 259.559 54.0251C259.934 53.993 260.382 53.9175 260.902 53.8299L261.137 53.7903C261.689 53.6973 261.965 53.6508 262.158 53.5078C262.328 53.382 262.453 53.2057 262.517 53.0043C262.589 52.7752 262.542 52.4991 262.449 51.9468L260.988 43.269C260.895 42.7167 260.848 42.4406 260.705 42.2478C260.579 42.0781 260.403 41.9527 260.202 41.8894C259.973 41.8175 259.696 41.864 259.144 41.957L256.383 42.422Z" fill="url(#paint1_linear_63_16508)"/>
<path d="M264.421 51.6147C264.514 52.1669 264.561 52.4431 264.704 52.6359C264.83 52.8055 265.006 52.931 265.207 52.9943C265.436 53.0662 265.713 53.0197 266.265 52.9267L272.417 51.8906C272.937 51.8031 273.385 51.7276 273.749 51.6352C274.134 51.5377 274.51 51.402 274.851 51.1491C275.36 50.7717 275.736 50.2429 275.926 49.6385C276.053 49.2333 276.058 48.8337 276.024 48.4385C275.992 48.0641 275.917 47.6156 275.829 47.0958L274.793 40.9439C274.7 40.3916 274.654 40.1155 274.511 39.9226C274.385 39.753 274.209 39.6276 274.007 39.5643C273.778 39.4923 273.502 39.5388 272.95 39.6318L264.272 41.0934C263.72 41.1864 263.443 41.2329 263.251 41.3759C263.081 41.5017 262.956 41.6779 262.892 41.8794C262.82 42.1085 262.867 42.3846 262.96 42.9369L264.421 51.6147Z" fill="url(#paint2_linear_63_16508)"/>
<path d="M273.93 35.8161C274.023 36.3684 274.069 36.6445 273.997 36.8736C273.934 37.075 273.808 37.2513 273.639 37.3771C273.446 37.5201 273.17 37.5666 272.618 37.6596L263.94 39.1211C263.387 39.2141 263.111 39.2607 262.882 39.1887C262.681 39.1254 262.505 39 262.379 38.8303C262.236 38.6375 262.189 38.3614 262.096 37.8091L261.631 35.048C261.538 34.4957 261.492 34.2196 261.564 33.9905C261.627 33.789 261.752 33.6128 261.922 33.487C262.115 33.344 262.391 33.2975 262.943 33.2045L269.095 32.1684C269.615 32.0808 270.063 32.0052 270.438 31.9732C270.833 31.9394 271.233 31.9444 271.638 32.0717C272.242 32.2616 272.771 32.6379 273.148 33.1468C273.401 33.4879 273.537 33.8638 273.635 34.2483C273.727 34.6126 273.802 35.061 273.89 35.5809L273.93 35.8161Z" fill="url(#paint3_linear_63_16508)"/>
</g>
</g>
<g style="mix-blend-mode:multiply">
<g clip-path="url(#clip1_63_16508)">
<path d="M280.048 28.0503C280.503 23.6293 280.73 21.4187 281.764 19.8187C282.674 18.4112 284.006 17.3278 285.569 16.7239C287.346 16.0373 289.557 16.2647 293.978 16.7197L302.429 17.5894C304.36 17.7881 305.325 17.8874 306.212 18.199C306.997 18.4753 307.734 18.8735 308.396 19.379C309.142 19.9492 309.755 20.7021 310.98 22.2078L318.506 31.4604C319.73 32.9662 320.343 33.7191 320.749 34.566C321.109 35.3168 321.349 36.1197 321.459 36.945C321.584 37.876 321.485 38.8414 321.286 40.7722L319.333 59.7487C318.878 64.1698 318.651 66.3803 317.616 67.9804C316.707 69.3879 315.375 70.4712 313.812 71.0752C312.034 71.7618 309.824 71.5343 305.403 71.0793L288.562 69.3463C284.141 68.8914 281.931 68.6639 280.331 67.6297C278.923 66.72 277.84 65.3881 277.236 63.8249C276.549 62.0477 276.777 59.8372 277.232 55.4162L280.048 28.0503Z" fill="#E4E4E7"/>
<path d="M307.588 18.8368L306.47 29.7056C306.318 31.1793 306.242 31.9162 306.471 32.5086C306.672 33.0296 307.033 33.4736 307.502 33.7768C308.036 34.1215 308.773 34.1974 310.246 34.349L321.115 35.4675M321.286 40.7722L319.333 59.7487C318.878 64.1698 318.651 66.3803 317.616 67.9804C316.707 69.3879 315.375 70.4712 313.812 71.0752C312.034 71.7618 309.824 71.5343 305.403 71.0793L288.562 69.3463C284.141 68.8914 281.931 68.6639 280.331 67.6297C278.923 66.72 277.84 65.3881 277.236 63.8249C276.549 62.0477 276.777 59.8372 277.232 55.4162L280.048 28.0503C280.503 23.6293 280.73 21.4187 281.764 19.8187C282.674 18.4112 284.006 17.3278 285.569 16.7239C287.346 16.0373 289.557 16.2647 293.978 16.7197L302.429 17.5894C304.36 17.7881 305.325 17.8874 306.212 18.199C306.997 18.4753 307.734 18.8735 308.396 19.379C309.142 19.9492 309.755 20.7021 310.98 22.2078L318.506 31.4604C319.73 32.9662 320.343 33.7191 320.749 34.566C321.109 35.3168 321.349 36.1196 321.459 36.945C321.584 37.876 321.485 38.8414 321.286 40.7722Z" stroke="#E4E4E7" stroke-width="3" stroke-linecap="round" stroke-linejoin="round"/>
<g clip-path="url(#clip2_63_16508)">
<rect x="289.52" y="35.6484" width="24" height="24" rx="4" transform="rotate(6.87965 289.52 35.6484)" fill="url(#paint4_linear_63_16508)"/>
<path d="M304.493 56.2572L301.577 49.0561L305.926 43.0001L303.015 42.6489L300.313 46.5246L298.648 42.122L295.646 41.7598L298.448 48.6785L293.903 54.9795L296.814 55.3308L299.691 51.2267L301.49 55.895L304.493 56.2572Z" fill="white"/>
</g>
</g>
</g>
<rect y="99" width="390" height="52" fill="url(#paint5_linear_63_16508)"/>
<rect x="58" y="23" width="136" height="58" transform="rotate(90 58 23)" fill="url(#paint6_linear_63_16508)"/>
<rect x="332" y="159" width="136" height="58" transform="rotate(-90 332 159)" fill="url(#paint7_linear_63_16508)"/>
<rect x="9" y="6" width="374" height="59" fill="url(#paint8_linear_63_16508)"/>
<defs>
<filter id="filter0_d_63_16508" x="-18" y="115" width="427" height="37" filterUnits="userSpaceOnUse" color-interpolation-filters="sRGB">
<feFlood flood-opacity="0" result="BackgroundImageFix"/>
<feColorMatrix in="SourceAlpha" type="matrix" values="0 0 0 0 0 0 0 0 0 0 0 0 0 0 0 0 0 0 127 0" result="hardAlpha"/>
<feOffset/>
<feGaussianBlur stdDeviation="3"/>
<feComposite in2="hardAlpha" operator="out"/>
<feColorMatrix type="matrix" values="0 0 0 0 0 0 0 0 0 0 0 0 0 0 0 0 0 0 0.14 0"/>
<feBlend mode="normal" in2="BackgroundImageFix" result="effect1_dropShadow_63_16508"/>
<feBlend mode="normal" in="SourceGraphic" in2="effect1_dropShadow_63_16508" result="shape"/>
</filter>
<linearGradient id="paint0_linear_63_16508" x1="275.441" y1="44.7897" x2="251.515" y2="41.2137" gradientUnits="userSpaceOnUse">
<stop stop-color="#358859"/>
<stop offset="0.932292" stop-color="#479764"/>
</linearGradient>
<linearGradient id="paint1_linear_63_16508" x1="275.441" y1="44.7897" x2="251.515" y2="41.2137" gradientUnits="userSpaceOnUse">
<stop stop-color="#358859"/>
<stop offset="0.932292" stop-color="#479764"/>
</linearGradient>
<linearGradient id="paint2_linear_63_16508" x1="275.441" y1="44.7897" x2="251.515" y2="41.2137" gradientUnits="userSpaceOnUse">
<stop stop-color="#358859"/>
<stop offset="0.932292" stop-color="#479764"/>
</linearGradient>
<linearGradient id="paint3_linear_63_16508" x1="275.441" y1="44.7897" x2="251.515" y2="41.2137" gradientUnits="userSpaceOnUse">
<stop stop-color="#358859"/>
<stop offset="0.932292" stop-color="#479764"/>
</linearGradient>
<linearGradient id="paint4_linear_63_16508" x1="289.52" y1="47.6484" x2="313.52" y2="47.6484" gradientUnits="userSpaceOnUse">
<stop stop-color="#469764"/>
<stop offset="1" stop-color="#348758"/>
</linearGradient>
<linearGradient id="paint5_linear_63_16508" x1="195" y1="99" x2="195" y2="151" gradientUnits="userSpaceOnUse">
<stop stop-color="white" stop-opacity="0"/>
<stop offset="1" stop-color="white"/>
</linearGradient>
<linearGradient id="paint6_linear_63_16508" x1="126" y1="23" x2="126" y2="81" gradientUnits="userSpaceOnUse">
<stop stop-color="white" stop-opacity="0"/>
<stop offset="0.605665" stop-color="white" stop-opacity="0.83"/>
<stop offset="1" stop-color="white"/>
</linearGradient>
<linearGradient id="paint7_linear_63_16508" x1="400" y1="159" x2="400" y2="217" gradientUnits="userSpaceOnUse">
<stop stop-color="white" stop-opacity="0"/>
<stop offset="0.605665" stop-color="white" stop-opacity="0.83"/>
<stop offset="1" stop-color="white"/>
</linearGradient>
<linearGradient id="paint8_linear_63_16508" x1="196" y1="6" x2="196" y2="65" gradientUnits="userSpaceOnUse">
<stop stop-color="white"/>
<stop offset="0.439295" stop-color="white" stop-opacity="0.9"/>
<stop offset="1" stop-color="white" stop-opacity="0"/>
</linearGradient>
<clipPath id="clip0_63_16508">
<rect width="63.4855" height="63.4855" fill="white" transform="translate(227 12.5479) rotate(-9.56464)"/>
</clipPath>
<clipPath id="clip1_63_16508">
<rect width="63.4855" height="63.4855" fill="white" transform="translate(271.363 9.07422) rotate(5.87554)"/>
</clipPath>
<clipPath id="clip2_63_16508">
<rect width="24" height="24" fill="white" transform="translate(289.52 35.6484) rotate(6.87965)"/>
</clipPath>
</defs>
</svg>
