<svg width="20" height="18" viewBox="0 0 20 18" fill="none" xmlns="http://www.w3.org/2000/svg">
<path d="M1.66406 2.83333C1.66406 2.36662 1.66406 2.13327 1.75489 1.95501C1.83478 1.79821 1.96227 1.67072 2.11907 1.59083C2.29733 1.5 2.53069 1.5 2.9974 1.5H16.9974C17.4641 1.5 17.6975 1.5 17.8757 1.59083C18.0325 1.67072 18.16 1.79821 18.2399 1.95501C18.3307 2.13327 18.3307 2.36662 18.3307 2.83333V3.39116C18.3307 3.61516 18.3307 3.72716 18.3034 3.8313C18.2791 3.92359 18.2392 4.01103 18.1853 4.0898C18.1245 4.17869 18.0399 4.25204 17.8706 4.39875L12.5408 9.01792C12.3716 9.16462 12.2869 9.23797 12.2261 9.32687C12.1723 9.40564 12.1324 9.49308 12.1081 9.58536C12.0807 9.68951 12.0807 9.80151 12.0807 10.0255V14.382C12.0807 14.5449 12.0807 14.6264 12.0544 14.6969C12.0312 14.7591 11.9934 14.8149 11.9443 14.8596C11.8886 14.9102 11.813 14.9404 11.6617 15.001L8.82832 16.1343C8.52204 16.2568 8.36889 16.3181 8.24596 16.2925C8.13845 16.2702 8.04411 16.2063 7.98344 16.1148C7.91406 16.0101 7.91406 15.8452 7.91406 15.5153V10.0255C7.91406 9.80151 7.91406 9.68951 7.88669 9.58536C7.86244 9.49308 7.82251 9.40564 7.76865 9.32687C7.70788 9.23797 7.62324 9.16462 7.45397 9.01792L2.12416 4.39875C1.95488 4.25204 1.87025 4.17869 1.80947 4.0898C1.75562 4.01103 1.71569 3.92359 1.69143 3.8313C1.66406 3.72716 1.66406 3.61516 1.66406 3.39116V2.83333Z" stroke="#A0A0AB" stroke-width="1.5" stroke-linecap="round" stroke-linejoin="round"/>
</svg>
