<svg width="20" height="20" viewBox="0 0 20 20" fill="none" xmlns="http://www.w3.org/2000/svg">
<g clip-path="url(#clip0_100_20221)">
<path opacity="0.12" d="M9.9974 18.3333C14.5998 18.3333 18.3307 14.6024 18.3307 10C18.3307 5.39763 14.5998 1.66667 9.9974 1.66667C5.39502 1.66667 1.66406 5.39763 1.66406 10C1.66406 14.6024 5.39502 18.3333 9.9974 18.3333Z" fill="#717BBC"/>
<path d="M7.5724 7.50001C7.76832 6.94306 8.15502 6.47343 8.66403 6.17428C9.17303 5.87514 9.77148 5.76579 10.3534 5.8656C10.9353 5.96541 11.4631 6.26794 11.8433 6.71961C12.2235 7.17128 12.4316 7.74294 12.4307 8.33334C12.4307 10 9.93073 10.8333 9.93073 10.8333M9.9974 14.1667H10.0057M18.3307 10C18.3307 14.6024 14.5998 18.3333 9.9974 18.3333C5.39502 18.3333 1.66406 14.6024 1.66406 10C1.66406 5.39763 5.39502 1.66667 9.9974 1.66667C14.5998 1.66667 18.3307 5.39763 18.3307 10Z" stroke="#717BBC" stroke-width="1.8" stroke-linecap="round" stroke-linejoin="round"/>
</g>
<defs>
<clipPath id="clip0_100_20221">
<rect width="20" height="20" fill="white"/>
</clipPath>
</defs>
</svg>
