<svg width="20" height="20" viewBox="0 0 20 20" fill="none" xmlns="http://www.w3.org/2000/svg">
<path d="M15.0003 1.66602C13.1593 1.66602 11.6669 3.1584 11.6669 4.99935C11.6669 6.8403 13.1593 8.33268 15.0003 8.33268C16.8412 8.33268 18.3336 6.8403 18.3336 4.99935C18.3336 3.1584 16.8412 1.66602 15.0003 1.66602Z" fill="#A0A0AB"/>
<path d="M14.8054 9.9621C14.3967 9.79258 13.9373 9.79258 13.5285 9.9621C13.2193 10.0903 13.0079 10.3132 12.8554 10.5022C12.7214 10.6684 12.578 10.8806 12.4244 11.1109L10.0964 7.74828C9.92836 7.5055 9.77174 7.27923 9.62642 7.1052C9.47381 6.92246 9.26413 6.7092 8.96124 6.58607C8.55881 6.42248 8.10841 6.42248 7.70597 6.58607C7.40308 6.7092 7.19341 6.92246 7.0408 7.1052C6.89546 7.27923 6.73885 7.50549 6.5708 7.74828L1.57631 14.9625C1.35944 15.2758 1.16501 15.5566 1.0304 15.7948C0.896311 16.0322 0.741033 16.3599 0.759281 16.7449C0.782545 17.2358 1.02125 17.6914 1.41159 17.9899C1.71779 18.2241 2.07563 18.283 2.34708 18.3078C2.61958 18.3327 2.9611 18.3327 3.34205 18.3327L15.8336 18.3327C15.8366 18.3327 15.8396 18.3327 15.8425 18.3326L16.7116 18.3327C17.0853 18.3327 17.4213 18.3327 17.69 18.3081C17.9589 18.2834 18.3115 18.225 18.6154 17.9952C19.004 17.7012 19.2445 17.2518 19.2736 16.7653C19.2963 16.385 19.1493 16.0592 19.0206 15.8218C18.8921 15.5846 18.7057 15.305 18.4984 14.9941L15.9513 11.1735C15.7818 10.9192 15.6245 10.6833 15.4785 10.5022C15.3261 10.3132 15.1147 10.0903 14.8054 9.9621Z" fill="#A0A0AB"/>
</svg>
