<svg width="10" height="10" viewBox="0 0 10 10" fill="none" xmlns="http://www.w3.org/2000/svg">
<path fill-rule="evenodd" clip-rule="evenodd" d="M3.39317 6.24999C4.4645 6.25023 5.53583 6.25023 6.60716 6.24999C6.9705 6.24991 7.21808 6.24986 7.43428 6.28798C8.46931 6.47048 9.27968 7.28085 9.46218 8.31588C9.5003 8.53208 9.50025 8.77966 9.50017 9.143C9.50015 9.22218 9.50258 9.30191 9.48877 9.38024C9.43402 9.69074 9.19091 9.93385 8.8804 9.98861C8.81231 10.0006 8.74059 10.0002 8.7049 10C6.23533 9.98682 3.76499 9.98682 1.29542 10C1.25974 10.0002 1.18801 10.0006 1.11992 9.98861C0.809416 9.93385 0.566307 9.69074 0.511555 9.38024C0.497744 9.30191 0.500171 9.22219 0.500154 9.143C0.500074 8.77966 0.500019 8.53208 0.538142 8.31588C0.720646 7.28085 1.53101 6.47048 2.56604 6.28798C2.78224 6.24986 3.02983 6.24991 3.39317 6.24999Z" fill="#D1D1D6"/>
<path fill-rule="evenodd" clip-rule="evenodd" d="M2.25016 2.75C2.25016 1.23122 3.48138 0 5.00016 0C6.51894 0 7.75016 1.23122 7.75016 2.75C7.75016 4.26878 6.51894 5.5 5.00016 5.5C3.48138 5.5 2.25016 4.26878 2.25016 2.75Z" fill="#D1D1D6"/>
</svg>
