<svg width="107" height="22" viewBox="0 0 107 22" fill="none" xmlns="http://www.w3.org/2000/svg">
<path d="M3.7598 21.0032H0V7.89868L3.7598 11.7992V21.0032Z" fill="#3F3F46"/>
<path d="M17.5069 21.003H13.4844V6.19436L17.5069 2.23438V21.003Z" fill="#3F3F46"/>
<path d="M11.8182 0.781494L5.77406 6.62636L0.210645 1.04374C0.144121 0.981037 0.073764 0.923361 0 0.871117V6.67411L5.72613 12.4183L17.5086 1.02758V0.782962L11.8182 0.781494Z" fill="#629B81"/>
<path d="M5.77476 6.62853L8.75462 9.49331L5.72613 12.422L0 6.67775V0.874756" fill="#629B81"/>
<path d="M30.747 17.2636C30.7413 18.4746 30.7996 19.6849 30.9219 20.8886H27.5099C27.399 20.4411 27.3384 19.9806 27.3295 19.5172C26.8623 20.3054 25.9851 21.214 23.7034 21.214C20.5932 21.214 19.2812 18.9898 19.2812 16.8133C19.2812 13.6165 21.6412 12.1415 25.426 12.1415H27.2668V11.2836C27.2668 10.286 26.9366 9.3054 25.2802 9.3054C23.7723 9.3054 23.4421 10.0025 23.278 11.0184H19.8815C20.0753 8.52456 21.4927 6.50674 25.4145 6.53098C28.8698 6.55448 30.749 8.02359 30.749 11.3636L30.747 17.2636ZM27.2661 14.5009H25.8109C23.6589 14.5009 22.8607 15.2156 22.8607 16.5687C22.8495 16.8307 22.8909 17.0922 22.9822 17.3349C23.0735 17.5776 23.2125 17.7957 23.3893 17.974C23.5662 18.1522 23.7767 18.2863 24.0061 18.3669C24.2356 18.4474 24.4784 18.4725 24.7177 18.4403C26.9872 18.4403 27.2661 16.7237 27.2661 14.8704V14.5009Z" fill="#3F3F46"/>
<path d="M32.7344 2.02368H36.3058V5.48858H32.7344V2.02368ZM32.7344 6.85633H36.3058V20.8864H32.7344V6.85633Z" fill="#3F3F46"/>
<path d="M38.2656 20.8886V2.02368H41.837V20.8886H38.2656Z" fill="#3F3F46"/>
<path d="M49.2751 5.05363H43.9258V2.13965H57.8576V5.05363H52.5177V20.8885H49.2764L49.2751 5.05363Z" fill="#3F3F46"/>
<path d="M58.5442 14.6155C58.5516 16.7252 59.5246 18.5329 61.4282 18.5329C63.0893 18.5329 63.589 17.7249 63.9516 16.8206H67.0578C66.5851 18.5527 65.1961 21.2133 61.3445 21.2133C57.1897 21.2133 55.4219 17.7381 55.4219 14.105C55.4219 9.81003 57.4354 6.62793 61.4761 6.62793C65.7856 6.62793 67.234 10.1384 67.234 13.4468C67.2422 13.837 67.228 14.2273 67.1915 14.6155H58.5442ZM64.1204 12.4721C64.0955 10.6246 63.3439 9.09898 61.4607 9.09898C59.5774 9.09898 58.788 10.5189 58.6192 12.4721H64.1204Z" fill="#3F3F46"/>
<path d="M70.7312 16.77C71.033 18.0187 71.9338 18.7342 73.3964 18.7342C74.8982 18.7342 75.4633 18.098 75.4633 17.1122C75.4633 16.0795 74.9002 15.6431 72.8602 15.1018C68.8594 14.033 68.149 12.691 68.149 10.7495C68.149 8.72656 69.4799 6.63086 73.1519 6.63086C76.8415 6.63086 78.1698 8.86245 78.2994 10.7679H75.3411C75.2061 10.1237 74.7833 9.05564 73.0149 9.05564C71.6333 9.05564 71.2018 9.74685 71.2018 10.4697C71.2018 11.2777 71.6427 11.6751 73.813 12.2326C77.9557 13.2874 78.6187 14.8197 78.6187 16.8721C78.6187 19.2226 76.9496 21.2184 73.2843 21.2184C69.5873 21.2184 67.9748 19.2498 67.6797 16.7722L70.7312 16.77Z" fill="#3F3F46"/>
<path d="M78.3692 6.9532H80.4247V3.06592H83.5227V6.9532H86.1393V9.53883H83.5227V16.8484C83.5227 18.0053 83.8219 18.5122 84.9131 18.5122C85.2181 18.5172 85.5231 18.4946 85.8247 18.4446V20.8157C85.0987 21.0268 84.3471 21.1154 83.5964 21.0787C81.2674 21.0787 80.4227 19.7359 80.4227 17.3391V9.5381H78.3672L78.3692 6.9532Z" fill="#3F3F46"/>
<path d="M89.2747 14.6155C89.2822 16.7252 90.2552 18.5329 92.1587 18.5329C93.8198 18.5329 94.3196 17.7249 94.6822 16.8206H97.7883C97.3157 18.5527 95.9266 21.2133 92.075 21.2133C87.9195 21.2133 86.1523 17.7381 86.1523 14.105C86.1523 9.81003 88.1667 6.62793 92.2067 6.62793C96.5168 6.62793 97.9646 10.1384 97.9646 13.4468C97.9728 13.837 97.9586 14.2273 97.922 14.6155H89.2747ZM94.851 12.4721C94.826 10.6246 94.0744 9.09898 92.1911 9.09898C90.3078 9.09898 89.5185 10.5189 89.3497 12.4721H94.851Z" fill="#3F3F46"/>
<path d="M99.314 10.7347C99.314 9.16056 99.3066 7.97572 99.2891 6.95248H102.328C102.37 7.29111 102.412 8.57658 102.412 9.53298C102.74 8.63293 103.321 7.86804 104.071 7.34663C104.821 6.82523 105.702 6.57374 106.591 6.6278V9.87822C103.999 9.85912 102.412 10.8603 102.412 14.5794V20.887H99.314V10.7347Z" fill="#3F3F46"/>
</svg>
