<svg width="20" height="20" viewBox="0 0 20 20" fill="none" xmlns="http://www.w3.org/2000/svg">
<path d="M7.79642 17.5001C8.38403 18.0187 9.15591 18.3334 10.0013 18.3334C10.8466 18.3334 11.6185 18.0187 12.2061 17.5001M15.0013 6.66675C15.0013 5.34067 14.4745 4.0689 13.5368 3.13121C12.5991 2.19353 11.3274 1.66675 10.0013 1.66675C8.6752 1.66675 7.40343 2.19353 6.46574 3.13121C5.52806 4.0689 5.00128 5.34067 5.00128 6.66675C5.00128 9.2419 4.35167 11.005 3.626 12.1713C3.01388 13.155 2.70783 13.6468 2.71905 13.784C2.73147 13.936 2.76366 13.9939 2.88609 14.0847C2.99666 14.1667 3.4951 14.1667 4.49199 14.1667H15.5106C16.5075 14.1667 17.0059 14.1667 17.1165 14.0847C17.2389 13.9939 17.2711 13.936 17.2835 13.784C17.2947 13.6468 16.9887 13.155 16.3766 12.1713C15.6509 11.005 15.0013 9.2419 15.0013 6.66675Z" stroke="#70707B" stroke-width="1.4" stroke-linecap="round" stroke-linejoin="round"/>
</svg>
