<svg width="28" height="28" viewBox="0 0 28 28" fill="none" xmlns="http://www.w3.org/2000/svg">
<rect width="28" height="28" rx="4" fill="#ECFDF3"/>
<path d="M7.66536 13.9993H9.92001C10.3768 13.9993 10.7944 14.2574 10.9987 14.666C11.203 15.0746 11.6206 15.3327 12.0774 15.3327H15.92C16.3768 15.3327 16.7944 15.0746 16.9987 14.666C17.203 14.2574 17.6206 13.9993 18.0774 13.9993H20.332M11.9764 8.66602H16.021C16.7389 8.66602 17.0979 8.66602 17.4148 8.77533C17.695 8.87199 17.9503 9.02975 18.1621 9.23718C18.4016 9.47175 18.5621 9.79282 18.8832 10.4349L20.3275 13.3237C20.4535 13.5757 20.5165 13.7017 20.561 13.8337C20.6004 13.951 20.6289 14.0717 20.646 14.1942C20.6654 14.3322 20.6654 14.473 20.6654 14.7548V16.1327C20.6654 17.2528 20.6654 17.8128 20.4474 18.2407C20.2556 18.617 19.9497 18.9229 19.5733 19.1147C19.1455 19.3327 18.5855 19.3327 17.4654 19.3327H10.532C9.41193 19.3327 8.85187 19.3327 8.42405 19.1147C8.04773 18.9229 7.74176 18.617 7.55002 18.2407C7.33203 17.8128 7.33203 17.2528 7.33203 16.1327V14.7548C7.33203 14.473 7.33203 14.3322 7.35135 14.1942C7.3685 14.0717 7.39699 13.951 7.43644 13.8337C7.48087 13.7017 7.54387 13.5757 7.66986 13.3237L9.11424 10.4349C9.4353 9.79281 9.59583 9.47175 9.83533 9.23718C10.0471 9.02975 10.3024 8.87199 10.5826 8.77533C10.8995 8.66602 11.2585 8.66602 11.9764 8.66602Z" stroke="#039855" stroke-width="1.4" stroke-linecap="round" stroke-linejoin="round"/>
</svg>
