<svg width="28" height="28" viewBox="0 0 28 28" fill="none" xmlns="http://www.w3.org/2000/svg">
<rect width="28" height="28" rx="4" fill="#EFF8FF"/>
<g clip-path="url(#clip0_36_45873)">
<path d="M11.9987 14.0007L13.332 15.334L16.332 12.334M17.9328 9.33299C18.0701 9.66501 18.3336 9.92892 18.6654 10.0667L19.8289 10.5486C20.1609 10.6862 20.4247 10.95 20.5622 11.282C20.6997 11.6141 20.6997 11.9871 20.5622 12.3192L20.0806 13.4819C19.9431 13.814 19.9429 14.1875 20.0811 14.5195L20.5618 15.6818C20.63 15.8463 20.6651 16.0226 20.6651 16.2006C20.6652 16.3786 20.6301 16.5549 20.562 16.7194C20.4939 16.8839 20.394 17.0333 20.2681 17.1592C20.1422 17.2851 19.9927 17.3849 19.8282 17.453L18.6656 17.9346C18.3336 18.0718 18.0697 18.3354 17.9319 18.6672L17.45 19.8307C17.3125 20.1627 17.0487 20.4265 16.7166 20.5641C16.3846 20.7016 16.0115 20.7016 15.6795 20.5641L14.5169 20.0825C14.1848 19.9453 13.8119 19.9455 13.4801 20.0832L12.3166 20.5645C11.9848 20.7017 11.612 20.7016 11.2803 20.5642C10.9485 20.4267 10.6849 20.1632 10.5472 19.8316L10.0652 18.6677C9.9279 18.3357 9.66439 18.0718 9.3326 17.934L8.16914 17.4521C7.83725 17.3146 7.57354 17.0509 7.43595 16.7191C7.29837 16.3872 7.29818 16.0143 7.43543 15.6823L7.91701 14.5197C8.0542 14.1876 8.05392 13.8147 7.91623 13.4828L7.43535 12.3185C7.36717 12.1541 7.33206 11.9778 7.33203 11.7997C7.332 11.6217 7.36705 11.4454 7.43518 11.2809C7.50331 11.1165 7.60317 10.967 7.72908 10.8412C7.85498 10.7153 8.00445 10.6155 8.16894 10.5474L9.33156 10.0658C9.66328 9.92863 9.92702 9.66545 10.0649 9.33402L10.5468 8.17052C10.6844 7.83848 10.9481 7.57467 11.2802 7.43714C11.6122 7.2996 11.9853 7.2996 12.3173 7.43714L13.4799 7.91873C13.812 8.05593 14.1849 8.05565 14.5167 7.91795L15.6807 7.43788C16.0127 7.30042 16.3857 7.30045 16.7176 7.43796C17.0496 7.57547 17.3133 7.8392 17.4509 8.17116L17.933 9.335L17.9328 9.33299Z" stroke="#2E90FA" stroke-width="1.5" stroke-linecap="round" stroke-linejoin="round"/>
</g>
<defs>
<clipPath id="clip0_36_45873">
<rect width="16" height="16" fill="white" transform="translate(6 6)"/>
</clipPath>
</defs>
</svg>
