<svg width="28" height="28" viewBox="0 0 28 28" fill="none" xmlns="http://www.w3.org/2000/svg">
<rect width="28" height="28" rx="4" fill="#FFF4ED"/>
<path d="M17.9994 7.33398C16.5267 7.33398 15.3328 8.52789 15.3328 10.0007C15.3328 11.4734 16.5267 12.6673 17.9994 12.6673C19.4722 12.6673 20.6661 11.4734 20.6661 10.0007C20.6661 8.52789 19.4722 7.33398 17.9994 7.33398Z" fill="#FF9C66"/>
<path d="M17.8435 13.9708C17.5165 13.8352 17.149 13.8352 16.822 13.9708C16.5746 14.0734 16.4055 14.2517 16.2836 14.4029C16.1763 14.5359 16.0617 14.7056 15.9387 14.8899L14.0763 12.1998C13.9419 12.0056 13.8166 11.8246 13.7004 11.6853C13.5783 11.5391 13.4105 11.3685 13.1682 11.27C12.8463 11.1392 12.4859 11.1392 12.164 11.27C11.9217 11.3685 11.7539 11.5391 11.6319 11.6853C11.5156 11.8246 11.3903 12.0056 11.2559 12.1998L7.26027 17.9712C7.08677 18.2218 6.93122 18.4464 6.82354 18.637C6.71627 18.8269 6.59204 19.0891 6.60664 19.3971C6.62525 19.7898 6.81622 20.1543 7.12849 20.3931C7.37345 20.5804 7.65972 20.6275 7.87688 20.6474C8.09488 20.6674 8.3681 20.6673 8.67286 20.6673L18.6661 20.6673C18.6685 20.6673 18.6709 20.6673 18.6733 20.6673L19.3685 20.6673C19.6675 20.6673 19.9363 20.6673 20.1512 20.6476C20.3663 20.6279 20.6484 20.5812 20.8915 20.3973C21.2024 20.1621 21.3948 19.8026 21.4181 19.4134C21.4362 19.1092 21.3186 18.8485 21.2157 18.6586C21.1129 18.4688 20.9637 18.2452 20.7979 17.9965L18.7602 14.94C18.6247 14.7365 18.4988 14.5478 18.382 14.4029C18.2601 14.2517 18.0909 14.0734 17.8435 13.9708Z" fill="#FF9C66"/>
</svg>
