<svg width="20" height="20" viewBox="0 0 20 20" fill="none" xmlns="http://www.w3.org/2000/svg">
<path fill-rule="evenodd" clip-rule="evenodd" d="M18 10C18 14.4183 14.4183 18 10 18C5.58172 18 2 14.4183 2 10C2 5.58172 5.58172 2 10 2C14.4183 2 18 5.58172 18 10ZM12.8657 7.2733C12.8657 5.74704 11.5773 4.5 10.0002 4.5C8.42326 4.5 7.13478 5.74704 7.13478 7.2733C7.13478 8.79956 8.42326 10.0466 10.0002 10.0466C11.5772 10.0466 12.8657 8.79956 12.8657 7.2733ZM5.88793 14.3692C5.33467 13.8482 5.29194 12.9913 5.79805 12.4245C6.18236 11.9941 6.68421 11.5889 7.21167 11.5889H12.7887C13.553 11.5889 14.1283 11.974 14.5149 12.5528C14.8561 13.0634 14.731 13.7413 14.303 14.1816C13.2128 15.3032 11.6878 16 10.0002 16C8.4087 16 6.9619 15.3803 5.88793 14.3692Z" fill="#A0A0AB"/>
</svg>
