<svg width="20" height="20" viewBox="0 0 20 20" fill="none" xmlns="http://www.w3.org/2000/svg">
<path d="M4 2H11.3316C11.6751 2 11.8821 2.4022 11.7346 2.71239C11.4769 3.25409 11.3327 3.86021 11.3327 4.5C11.3327 6.80119 13.1982 8.66667 15.4993 8.66667C16.1394 8.66667 16.7458 8.52233 17.2877 8.26444C17.5979 8.11681 18.0002 8.3238 18.0002 8.66734V12.0003C18.0002 13.1049 17.1048 14.0003 16.0003 14.0003L15.1669 14.0003C15.0748 14.0003 15.0002 14.075 15.0002 14.167V16.2748C15.0002 16.6285 14.5873 16.8213 14.3161 16.5943L11.2634 14.0391C11.2334 14.014 11.1956 14.0003 11.1565 14.0003L4.00001 14.0003C2.89544 14.0003 2 13.1049 2 12.0003V4C2 2.89543 2.89543 2 4 2Z" fill="#A0A0AB"/>
<path d="M17.9993 4.5C17.9993 3.11929 16.8801 2 15.4993 2C14.1186 2 12.9993 3.11929 12.9993 4.5C12.9993 5.88071 14.1186 7 15.4993 7C16.8801 7 17.9993 5.88071 17.9993 4.5Z" fill="#A0A0AB"/>
</svg>
