<svg width="28" height="28" viewBox="0 0 28 28" fill="none" xmlns="http://www.w3.org/2000/svg">
<rect width="28" height="28" rx="4" fill="#FFF4ED"/>
<path d="M11.9974 6.66675C12.3656 6.66675 12.6641 6.96522 12.6641 7.33341V8.33341C12.6641 8.7016 12.3656 9.00008 11.9974 9.00008C11.6292 9.00008 11.3307 8.7016 11.3307 8.33341V7.33341C11.3307 6.96522 11.6292 6.66675 11.9974 6.66675Z" fill="#FDB022"/>
<path d="M8.19266 8.19534C8.45301 7.93499 8.87512 7.93499 9.13547 8.19534L9.84257 8.90245C10.1029 9.1628 10.1029 9.58491 9.84257 9.84526C9.58222 10.1056 9.16011 10.1056 8.89976 9.84526L8.19266 9.13815C7.93231 8.8778 7.93231 8.45569 8.19266 8.19534Z" fill="#FDB022"/>
<path d="M9.84257 15.1382C10.1029 14.8778 10.1029 14.4557 9.84257 14.1953C9.58222 13.935 9.16011 13.935 8.89976 14.1953L8.19266 14.9024C7.93231 15.1628 7.93231 15.5849 8.19266 15.8453C8.45301 16.1056 8.87512 16.1056 9.13547 15.8453L9.84257 15.1382Z" fill="#FDB022"/>
<path d="M15.8426 8.19534C16.1029 8.45569 16.1029 8.8778 15.8426 9.13815L15.1355 9.84526C14.8751 10.1056 14.453 10.1056 14.1927 9.84526C13.9323 9.58491 13.9323 9.1628 14.1927 8.90245L14.8998 8.19534C15.1601 7.93499 15.5822 7.93499 15.8426 8.19534Z" fill="#FDB022"/>
<path d="M7.33073 11.3334C6.96254 11.3334 6.66406 11.6319 6.66406 12.0001C6.66406 12.3683 6.96254 12.6667 7.33073 12.6667H8.33073C8.69892 12.6667 8.9974 12.3683 8.9974 12.0001C8.9974 11.6319 8.69892 11.3334 8.33073 11.3334H7.33073Z" fill="#FDB022"/>
<path d="M11.8683 11.0321C11.6303 10.9556 11.3695 11.0186 11.1927 11.1954C11.0159 11.3721 10.9529 11.633 11.0295 11.871L13.7702 20.3895C13.8413 20.6106 14.0225 20.7788 14.2483 20.8333C14.4741 20.8879 14.712 20.8209 14.8762 20.6567L16.3307 19.2022L18.2667 21.1382C18.3918 21.2632 18.5613 21.3334 18.7382 21.3334C18.915 21.3334 19.0845 21.2632 19.2096 21.1382L21.1355 19.2122C21.2605 19.0872 21.3307 18.9177 21.3307 18.7408C21.3307 18.564 21.2605 18.3945 21.1355 18.2694L19.1995 16.3334L20.654 14.8789C20.8183 14.7147 20.8852 14.4767 20.8306 14.2509C20.7761 14.0251 20.6079 13.844 20.3868 13.7729L11.8683 11.0321Z" fill="#FDB022"/>
</svg>
