<svg width="28" height="28" viewBox="0 0 28 28" fill="none" xmlns="http://www.w3.org/2000/svg">
<rect width="28" height="28" rx="4" fill="#F9F9FB"/>
<path d="M20.4003 6.97159C20.1364 6.88345 19.8908 6.94719 19.7687 6.98266C19.6356 7.02132 19.477 7.08325 19.3178 7.14538L8.01311 11.557C7.83522 11.6264 7.66292 11.6936 7.52994 11.7593C7.41503 11.8162 7.17081 11.9426 7.03448 12.205C6.88415 12.4944 6.88435 12.8389 7.03503 13.1281C7.17166 13.3903 7.41603 13.5165 7.531 13.5732C7.66406 13.6388 7.83641 13.7058 8.01437 13.775L11.1611 14.9987C11.3958 15.09 11.5132 15.1356 11.6299 15.1384C11.7332 15.1409 11.8355 15.1194 11.929 15.0755C12.0348 15.0259 12.1238 14.9369 12.3019 14.7588L15.5322 11.5285C15.7925 11.2682 16.2146 11.2682 16.475 11.5285C16.7353 11.7889 16.7353 12.211 16.475 12.4713L13.2447 15.7016C13.0666 15.8797 12.9776 15.9687 12.928 16.0745C12.8841 16.168 12.8626 16.2703 12.8651 16.3736C12.8679 16.4903 12.9135 16.6077 13.0048 16.8424L14.2285 19.9891C14.2977 20.1671 14.3647 20.3394 14.4303 20.4725C14.487 20.5875 14.6132 20.8318 14.8754 20.9685C15.1646 21.1191 15.5091 21.1194 15.7985 20.969C16.0609 20.8327 16.1873 20.5885 16.2442 20.4736C16.3099 20.3406 16.3771 20.1683 16.4465 19.9904L20.8581 8.68566C20.9203 8.52652 20.9822 8.36791 21.0208 8.23482C21.0563 8.11269 21.1201 7.86705 21.0319 7.60321C20.9323 7.30511 20.6984 7.07117 20.4003 6.97159Z" fill="#7D89B0"/>
</svg>
