<svg width="28" height="28" viewBox="0 0 28 28" fill="none" xmlns="http://www.w3.org/2000/svg">
<rect width="28" height="28" rx="4" fill="#F9F5FF"/>
<path fill-rule="evenodd" clip-rule="evenodd" d="M16.8302 7.33325H11.1751C10.6385 7.33324 10.1956 7.33324 9.83478 7.36272C9.46005 7.39333 9.11558 7.45904 8.79203 7.6239C8.29026 7.87956 7.88231 8.28751 7.62665 8.78928C7.46179 9.11284 7.39608 9.4573 7.36546 9.83204C7.33599 10.1928 7.33599 10.6357 7.336 11.1724L7.33597 15.425C7.33568 15.9552 7.33547 16.349 7.42687 16.6901C7.67345 17.6103 8.39224 18.3291 9.31248 18.5757C9.51746 18.6306 9.74146 18.6525 10.0027 18.6611L10.0027 19.5806C10.0026 19.7374 10.0026 19.8973 10.0145 20.0283C10.0259 20.1536 10.056 20.3901 10.2211 20.5969C10.4111 20.8349 10.6992 20.9734 11.0037 20.973C11.2684 20.9728 11.4719 20.8486 11.5768 20.7792C11.6866 20.7066 11.8114 20.6067 11.9339 20.5087L13.5426 19.2217C13.8883 18.9451 13.991 18.8671 14.0976 18.8126C14.2046 18.7579 14.3185 18.718 14.4362 18.6938C14.5535 18.6697 14.6824 18.6666 15.1252 18.6666H16.8302C17.3669 18.6666 17.8098 18.6666 18.1706 18.6371C18.5453 18.6065 18.8898 18.5408 19.2133 18.3759C19.7151 18.1203 20.123 17.7123 20.3787 17.2106C20.5435 16.887 20.6093 16.5425 20.6399 16.1678C20.6694 15.807 20.6693 15.3641 20.6693 14.8275V11.1724C20.6693 10.6357 20.6694 10.1928 20.6399 9.83204C20.6093 9.4573 20.5435 9.11284 20.3787 8.78928C20.123 8.28751 19.7151 7.87956 19.2133 7.6239C18.8898 7.45904 18.5453 7.39333 18.1706 7.36272C17.8098 7.33324 17.3668 7.33324 16.8302 7.33325ZM10.0026 12.9999C10.0026 12.4476 10.4503 11.9999 11.0026 11.9999C11.5549 11.9999 12.0026 12.4476 12.0026 12.9999C12.0026 13.5522 11.5549 13.9999 11.0026 13.9999C10.4503 13.9999 10.0026 13.5522 10.0026 12.9999ZM13.0026 12.9999C13.0026 12.4476 13.4503 11.9999 14.0026 11.9999C14.5549 11.9999 15.0026 12.4476 15.0026 12.9999C15.0026 13.5522 14.5549 13.9999 14.0026 13.9999C13.4503 13.9999 13.0026 13.5522 13.0026 12.9999ZM17.0026 11.9999C16.4503 11.9999 16.0026 12.4476 16.0026 12.9999C16.0026 13.5522 16.4503 13.9999 17.0026 13.9999C17.5549 13.9999 18.0026 13.5522 18.0026 12.9999C18.0026 12.4476 17.5549 11.9999 17.0026 11.9999Z" fill="#B692F6"/>
</svg>
