<svg width="28" height="28" viewBox="0 0 28 28" fill="none" xmlns="http://www.w3.org/2000/svg">
<rect width="28" height="28" rx="4" fill="#FEF3F2"/>
<g clip-path="url(#clip0_325_34988)">
<path opacity="0.12" d="M14 21.5C18.1421 21.5 21.5 18.1421 21.5 14C21.5 9.85786 18.1421 6.5 14 6.5C9.85786 6.5 6.5 9.85786 6.5 14C6.5 18.1421 9.85786 21.5 14 21.5Z" fill="#F04438"/>
<path d="M16.25 11.75L11.75 16.25M11.75 11.75L16.25 16.25M21.5 14C21.5 18.1421 18.1421 21.5 14 21.5C9.85786 21.5 6.5 18.1421 6.5 14C6.5 9.85786 9.85786 6.5 14 6.5C18.1421 6.5 21.5 9.85786 21.5 14Z" stroke="#F04438" stroke-width="1.4" stroke-linecap="round" stroke-linejoin="round"/>
</g>
<defs>
<clipPath id="clip0_325_34988">
<rect width="18" height="18" fill="white" transform="translate(5 5)"/>
</clipPath>
</defs>
</svg>
