<svg width="28" height="28" viewBox="0 0 28 28" fill="none" xmlns="http://www.w3.org/2000/svg">
<rect width="28" height="28" rx="4" fill="#ECFDF3"/>
<path d="M14.4544 6.64325C14.1538 6.57269 13.841 6.57269 13.5404 6.64325C13.197 6.72385 12.8918 6.92284 12.5445 7.14924C11.0456 8.12358 9.54502 9.09552 8.04696 10.0712C7.81931 10.2195 7.70549 10.2936 7.66583 10.3878C7.63119 10.4701 7.63103 10.563 7.66538 10.6454C7.70471 10.7397 7.81834 10.8143 8.0456 10.9635L13.1927 14.3413C13.6592 14.6474 13.7572 14.7002 13.8439 14.7207C13.9449 14.7446 14.05 14.7446 14.1509 14.7207C14.2377 14.7002 14.3356 14.6474 14.8021 14.3413L19.9492 10.9635C20.1765 10.8143 20.2901 10.7398 20.3294 10.6454C20.3638 10.563 20.3636 10.4701 20.329 10.3878C20.2893 10.2936 20.1755 10.2195 19.9479 10.0712C18.4498 9.09553 16.9493 8.12356 15.4503 7.14925C15.103 6.92284 14.7978 6.72385 14.4544 6.64325Z" fill="#12B76A"/>
<path d="M21.3284 12.6399C21.3282 12.3194 21.328 12.1591 21.261 12.0701C21.2025 11.9926 21.1132 11.9444 21.0163 11.9382C20.9051 11.931 20.7709 12.0191 20.5025 12.1952L17.4102 14.2245C17.2131 14.3538 17.1146 14.4185 17.0745 14.5034C17.0394 14.5777 17.033 14.6624 17.0566 14.7412C17.0834 14.8311 17.1712 14.9098 17.3466 15.0673L20.948 18.2993C21.0802 18.4179 21.2868 18.345 21.3013 18.168C21.3307 17.8072 21.3307 17.3643 21.3307 16.8276C21.3307 15.6907 21.3294 13.7937 21.3284 12.6399Z" fill="#12B76A"/>
<path d="M20.2257 20.1617C20.3476 20.0736 20.4085 20.0296 20.445 19.9457C20.4732 19.8807 20.4785 19.7808 20.4573 19.7131C20.4299 19.6259 20.3621 19.5651 20.2266 19.4435L15.8719 15.5354C15.8691 15.5329 15.8677 15.5316 15.8665 15.5305C15.7547 15.4323 15.5914 15.42 15.4662 15.5004C15.4648 15.5013 15.4632 15.5023 15.4601 15.5044C15.1108 15.7343 14.8038 15.9364 14.4579 16.0182C14.1551 16.0898 13.8398 16.0898 13.537 16.0182C13.1911 15.9364 12.8841 15.7343 12.5347 15.5044C12.5316 15.5023 12.53 15.5012 12.5285 15.5003C12.4033 15.4199 12.2401 15.4322 12.1283 15.5304C12.1271 15.5316 12.1256 15.5328 12.1228 15.5354L7.7681 19.4435C7.6326 19.5651 7.56485 19.6259 7.53748 19.7131C7.51625 19.7807 7.52154 19.8806 7.54979 19.9457C7.58621 20.0295 7.64716 20.0736 7.76906 20.1616C7.87987 20.2417 7.99716 20.3135 8.12009 20.3761C8.44365 20.541 8.78811 20.6067 9.16285 20.6373C9.52364 20.6668 9.96654 20.6668 10.5032 20.6667H17.4916C18.0283 20.6668 18.4712 20.6668 18.8319 20.6373C19.2067 20.6067 19.5511 20.541 19.8747 20.3761C19.9976 20.3135 20.1149 20.2417 20.2257 20.1617Z" fill="#12B76A"/>
<path d="M6.69353 18.168C6.70799 18.345 6.91459 18.4179 7.04678 18.2993L10.6481 15.0673C10.8236 14.9098 10.9113 14.8311 10.9382 14.7412C10.9618 14.6624 10.9554 14.5777 10.9203 14.5033C10.8802 14.4185 10.7816 14.3538 10.5845 14.2244L7.49226 12.1951C7.2239 12.019 7.08972 11.931 6.97852 11.9381C6.88164 11.9444 6.79229 11.9926 6.73384 12.0701C6.66675 12.1591 6.66663 12.3193 6.66637 12.6398C6.66544 13.7937 6.66406 15.6907 6.66406 16.8276C6.66405 17.3643 6.66405 17.8072 6.69353 18.168Z" fill="#12B76A"/>
</svg>
