<svg width="16" height="16" viewBox="0 0 16 16" fill="none" xmlns="http://www.w3.org/2000/svg">
<path fill-rule="evenodd" clip-rule="evenodd" d="M8.00156 1.59961C4.46694 1.59961 1.60156 4.46499 1.60156 7.99961C1.60156 11.5342 4.46694 14.3996 8.00156 14.3996C11.5362 14.3996 14.4016 11.5342 14.4016 7.99961C14.4016 4.46499 11.5362 1.59961 8.00156 1.59961ZM7.31585 11.4663C7.31585 11.845 7.62285 12.1521 8.00156 12.1521C8.38027 12.1521 8.68728 11.845 8.68728 11.4663C8.68728 11.0876 8.38027 10.7806 8.00156 10.7806C7.62285 10.7806 7.31585 11.0876 7.31585 11.4663ZM6.97299 6.79961C6.97299 6.23155 7.4335 5.77104 8.00156 5.77104C8.56963 5.77104 9.03013 6.23155 9.03013 6.79961C9.03013 7.36768 8.56963 7.82818 8.00156 7.82818C7.62285 7.82818 7.31585 8.13519 7.31585 8.5139V9.40921C7.31585 9.78792 7.62285 10.0949 8.00156 10.0949C8.38027 10.0949 8.68728 9.78792 8.68728 9.40921V9.10022C9.67864 8.80518 10.4016 7.88682 10.4016 6.79961C10.4016 5.47413 9.32705 4.39961 8.00156 4.39961C6.67608 4.39961 5.60156 5.47413 5.60156 6.79961C5.60156 7.17832 5.90857 7.48533 6.28728 7.48533C6.66599 7.48533 6.97299 7.17832 6.97299 6.79961Z" fill="#3F3F46"/>
</svg>
