<svg width="20" height="20" viewBox="0 0 20 20" fill="none" xmlns="http://www.w3.org/2000/svg">
<path fill-rule="evenodd" clip-rule="evenodd" d="M4.9974 15.8333C4.9974 16.75 5.7474 17.5 6.66406 17.5H13.3307C14.2474 17.5 14.9974 16.75 14.9974 15.8333V7.5C14.9974 6.58333 14.2474 5.83333 13.3307 5.83333H6.66406C5.7474 5.83333 4.9974 6.58333 4.9974 7.5V15.8333ZM14.9974 3.33333H12.9141L12.3224 2.74167C12.1724 2.59167 11.9557 2.5 11.7391 2.5H8.25573C8.03906 2.5 7.8224 2.59167 7.6724 2.74167L7.08073 3.33333H4.9974C4.53906 3.33333 4.16406 3.70833 4.16406 4.16667C4.16406 4.625 4.53906 5 4.9974 5H14.9974C15.4557 5 15.8307 4.625 15.8307 4.16667C15.8307 3.70833 15.4557 3.33333 14.9974 3.33333Z" fill="#A0A0AB"/>
</svg>
