<svg width="17" height="16" viewBox="0 0 17 16" fill="none" xmlns="http://www.w3.org/2000/svg">
<path d="M13.8341 10.0002C13.8341 9.63197 13.5357 9.3335 13.1675 9.3335C12.7993 9.3335 12.5008 9.63197 12.5008 10.0002V11.3335H11.1675C10.7993 11.3335 10.5008 11.632 10.5008 12.0002C10.5008 12.3684 10.7993 12.6668 11.1675 12.6668H12.5008V14.0002C12.5008 14.3684 12.7993 14.6668 13.1675 14.6668C13.5357 14.6668 13.8341 14.3684 13.8341 14.0002V12.6668H15.1675C15.5357 12.6668 15.8341 12.3684 15.8341 12.0002C15.8341 11.632 15.5357 11.3335 15.1675 11.3335H13.8341V10.0002Z" fill="#70707B"/>
<path fill-rule="evenodd" clip-rule="evenodd" d="M8.62147 9.44249C8.80964 9.53836 8.96262 9.69134 9.05849 9.87951C9.16054 10.0798 9.16757 10.2986 9.16749 10.5181C9.16749 10.5233 9.16748 10.5284 9.16748 10.5335C9.16748 11.5164 9.16713 12.4993 9.16749 13.4822C9.16752 13.5617 9.16755 13.6565 9.16073 13.7401C9.15282 13.8369 9.13252 13.9755 9.05849 14.1208C8.96262 14.309 8.80964 14.462 8.62147 14.5578C8.47618 14.6319 8.33752 14.6522 8.24071 14.6601C8.15716 14.6669 8.06232 14.6669 7.98291 14.6668C6.10595 14.6661 4.22899 14.6661 2.35202 14.6668C2.27252 14.6669 2.17747 14.6669 2.09372 14.66C1.99657 14.6521 1.85763 14.6316 1.71211 14.5572C1.52371 14.4609 1.37033 14.3068 1.27487 14.118C1.20134 13.9725 1.1814 13.8339 1.17382 13.7366C1.16731 13.6529 1.16778 13.5581 1.16817 13.4791C1.1716 12.7863 1.15095 12.0437 1.42122 11.3912C1.75953 10.5745 2.40845 9.92554 3.22521 9.58723C3.56501 9.44648 3.92386 9.38811 4.32969 9.36042C4.72436 9.33349 5.2093 9.33349 5.81047 9.3335C6.53462 9.3335 7.25877 9.33377 7.98291 9.33349C8.20242 9.33341 8.4212 9.34044 8.62147 9.44249Z" fill="#70707B"/>
<path fill-rule="evenodd" clip-rule="evenodd" d="M10.2162 1.94386C10.3543 1.60257 10.743 1.43789 11.0843 1.57604C12.3047 2.07004 13.1675 3.26687 13.1675 4.66683C13.1675 6.06679 12.3047 7.26362 11.0843 7.75762C10.743 7.89577 10.3543 7.73109 10.2162 7.3898C10.078 7.04851 10.2427 6.65985 10.584 6.5217C11.3182 6.22451 11.8342 5.50512 11.8342 4.66683C11.8342 3.82853 11.3182 3.10915 10.584 2.81196C10.2427 2.67381 10.078 2.28515 10.2162 1.94386Z" fill="#70707B"/>
<path fill-rule="evenodd" clip-rule="evenodd" d="M3.50082 4.66683C3.50082 2.82588 4.9932 1.3335 6.83415 1.3335C8.6751 1.3335 10.1675 2.82588 10.1675 4.66683C10.1675 6.50778 8.6751 8.00016 6.83415 8.00016C4.9932 8.00016 3.50082 6.50778 3.50082 4.66683Z" fill="#70707B"/>
</svg>
