<svg width="20" height="20" viewBox="0 0 20 20" fill="none" xmlns="http://www.w3.org/2000/svg">
<g clip-path="url(#clip0_243_27607)">
<path d="M7.5013 9.99935L9.16797 11.666L12.918 7.91602M14.919 4.16477C15.0906 4.57979 15.4199 4.90968 15.8347 5.08191L17.289 5.68433C17.704 5.85625 18.0338 6.18601 18.2057 6.60106C18.3776 7.01612 18.3776 7.48247 18.2057 7.89752L17.6037 9.35085C17.4317 9.76609 17.4315 10.2329 17.6043 10.6479L18.2052 12.1008C18.2904 12.3064 18.3343 12.5268 18.3343 12.7493C18.3344 12.9718 18.2906 13.1922 18.2054 13.3978C18.1203 13.6034 17.9954 13.7902 17.838 13.9475C17.6807 14.1049 17.4938 14.2297 17.2882 14.3147L15.8349 14.9167C15.4199 15.0883 15.09 15.4177 14.9178 15.8325L14.3154 17.2869C14.1435 17.7019 13.8138 18.0317 13.3987 18.2036C12.9837 18.3755 12.5174 18.3755 12.1023 18.2036L10.649 17.6016C10.234 17.4301 9.76782 17.4305 9.35303 17.6026L7.89871 18.2041C7.4839 18.3757 7.01798 18.3755 6.60328 18.2037C6.18857 18.032 5.85901 17.7026 5.68698 17.288L5.0844 15.8332C4.9128 15.4182 4.58342 15.0883 4.16867 14.916L2.71436 14.3136C2.2995 14.1418 1.96985 13.8122 1.79787 13.3974C1.62589 12.9826 1.62566 12.5165 1.79722 12.1015L2.39919 10.6481C2.57068 10.2331 2.57033 9.76689 2.39822 9.35209L1.79711 7.89667C1.71189 7.6911 1.668 7.47075 1.66797 7.24821C1.66793 7.02567 1.71175 6.80531 1.7969 6.59971C1.88206 6.39411 2.0069 6.20731 2.16428 6.04998C2.32165 5.89264 2.50849 5.76786 2.71411 5.68277L4.16738 5.08078C4.58203 4.90933 4.91171 4.58035 5.08406 4.16606L5.68645 2.71169C5.85837 2.29664 6.18812 1.96688 6.60315 1.79496C7.01819 1.62304 7.48453 1.62304 7.89957 1.79496L9.35284 2.39695C9.76789 2.56844 10.2341 2.56809 10.6488 2.39597L12.1038 1.79589C12.5188 1.62407 12.985 1.6241 13.4 1.79599C13.8149 1.96787 14.1446 2.29754 14.3166 2.71249L14.9191 4.16729L14.919 4.16477Z" stroke="#70707B" stroke-width="1.6" stroke-linecap="round" stroke-linejoin="round"/>
</g>
<defs>
<clipPath id="clip0_243_27607">
<rect width="20" height="20" fill="white"/>
</clipPath>
</defs>
</svg>
