<svg width="44" height="44" viewBox="0 0 44 44" fill="none" xmlns="http://www.w3.org/2000/svg">
<rect width="44" height="44" rx="8" fill="#0085FF"/>
<path fill-rule="evenodd" clip-rule="evenodd" d="M33.8955 17.0986H35.9604C36.0286 17.4192 36.0974 17.7352 36.163 18.0519C36.7025 20.6512 37.2405 23.2507 37.7813 25.8498C37.8506 26.1827 37.9322 26.513 38.0082 26.8445V26.9144H35.6563C35.5702 26.4984 35.4779 26.0916 35.4051 25.6812C35.3748 25.5109 35.3207 25.4449 35.1317 25.4473C34.1886 25.4596 33.2453 25.4565 32.302 25.449C32.1593 25.4479 32.1026 25.4953 32.0591 25.6261C31.9292 26.0171 31.7871 26.4042 31.6417 26.7897C31.622 26.842 31.5566 26.9139 31.5118 26.9143C30.6617 26.9217 29.8115 26.9198 28.9368 26.9198C29.0962 26.5336 29.2471 26.1651 29.4003 25.7974C30.4965 23.1671 31.5931 20.537 32.6896 17.9069C32.927 17.3372 33.2831 17.0986 33.8955 17.0986ZM34.1544 19.8268C33.7235 21.0222 33.2927 22.2176 32.857 23.4263H34.93C34.6793 22.2176 34.432 21.0252 34.1848 19.8328C34.1747 19.8308 34.1646 19.8288 34.1544 19.8268ZM26.5812 16.9238H27.7621C28.0725 16.9818 28.3852 17.0294 28.6926 17.1007C28.973 17.1658 29.2476 17.2564 29.5456 17.3419C29.3954 18.0484 29.2488 18.738 29.1053 19.4127C28.7121 19.2968 28.3362 19.1632 27.9498 19.0775C27.4214 18.9602 26.88 18.9155 26.3514 19.0636C26.1364 19.1238 25.919 19.2395 25.7498 19.3853C25.4596 19.6354 25.4557 19.9953 25.7329 20.2579C25.924 20.4389 26.1505 20.5875 26.3769 20.7244C26.8915 21.0356 27.4318 21.3063 27.9319 21.6388C28.5209 22.0303 28.9505 22.5686 29.0407 23.2964C29.2002 24.5837 28.7269 25.5977 27.6517 26.315C26.9757 26.7661 26.2106 26.9676 25.4134 27.0422C25.1614 27.0658 24.9106 27.0776 24.661 27.0777H24.6561C23.8045 27.0775 22.9669 26.9409 22.1456 26.6695C22.0743 26.646 22.0048 26.6166 21.9353 26.588C21.9146 26.5794 21.8966 26.5644 21.8648 26.5444C22.015 25.8367 22.1655 25.1281 22.3202 24.3995C22.5014 24.4791 22.6717 24.559 22.8456 24.6294C23.6765 24.9661 24.5347 25.1202 25.424 24.9526C25.6554 24.909 25.8914 24.8063 26.0875 24.674C26.5131 24.3871 26.5539 23.8479 26.1664 23.5108C25.9117 23.2893 25.6055 23.1257 25.3153 22.9479C24.862 22.6702 24.3804 22.4335 23.9515 22.1227C23.4016 21.7243 23.0035 21.1932 22.928 20.4871C22.8149 19.43 23.2049 18.5716 24.0118 17.9047C24.7138 17.3243 25.5472 17.0668 26.4352 16.9587C26.4846 16.9526 26.5326 16.9357 26.5812 16.9238ZM15.8933 17.2491C15.9379 17.1351 15.9927 17.0955 16.1135 17.0955H16.118C16.6786 17.0999 17.2392 17.0995 17.7999 17.0991C18.0148 17.0989 18.2298 17.0988 18.4447 17.0989C18.4948 17.0989 18.545 17.1033 18.616 17.1066C18.4838 17.4264 18.3587 17.7312 18.232 18.0354C17.0215 20.9396 15.8095 23.8431 14.604 26.7494C14.5466 26.8879 14.4763 26.9243 14.3366 26.923C13.5727 26.9167 12.8086 26.9142 12.0447 26.9248C11.8827 26.927 11.8299 26.8699 11.7926 26.7238C11.145 24.1853 10.4865 21.6496 9.84615 19.1092C9.72866 18.6432 9.4935 18.3249 9.05241 18.1295C8.34538 17.8163 7.61148 17.5964 6.86282 17.4176C6.82968 17.4097 6.79676 17.401 6.76562 17.3932C6.76937 17.0986 6.76937 17.0986 7.048 17.0986C8.38499 17.0986 9.72203 17.0983 11.0591 17.0988C11.6932 17.0989 12.151 17.4694 12.271 18.1008C12.6103 19.8879 12.9425 21.6765 13.2778 23.4645C13.2925 23.5426 13.3092 23.6204 13.3314 23.7305C13.366 23.665 13.3902 23.6282 13.406 23.588C14.2365 21.4755 15.0671 19.3631 15.8933 17.2491ZM19.6908 17.1091H22.2241C22.1187 17.6068 22.0155 18.095 21.9118 18.5831C21.3379 21.2824 20.7617 23.9812 20.1941 26.6818C20.1547 26.8695 20.0886 26.9291 19.895 26.9254C19.2007 26.9118 18.506 26.92 17.8115 26.92H17.6034C18.3019 23.637 18.9955 20.377 19.6908 17.1091Z" fill="white"/>
</svg>
