<svg width="14" height="14" viewBox="0 0 14 14" fill="none" xmlns="http://www.w3.org/2000/svg">
<g clip-path="url(#clip0_232_27492)">
<path opacity="0.12" d="M7.0013 12.8327C10.223 12.8327 12.8346 10.221 12.8346 6.99935C12.8346 3.77769 10.223 1.16602 7.0013 1.16602C3.77964 1.16602 1.16797 3.77769 1.16797 6.99935C1.16797 10.221 3.77964 12.8327 7.0013 12.8327Z" fill="#F79009"/>
<path d="M7.0013 4.66602V6.99935M7.0013 9.33268H7.00714M12.8346 6.99935C12.8346 10.221 10.223 12.8327 7.0013 12.8327C3.77964 12.8327 1.16797 10.221 1.16797 6.99935C1.16797 3.77769 3.77964 1.16602 7.0013 1.16602C10.223 1.16602 12.8346 3.77769 12.8346 6.99935Z" stroke="#F79009" stroke-width="1.4" stroke-linecap="round" stroke-linejoin="round"/>
</g>
<defs>
<clipPath id="clip0_232_27492">
<rect width="14" height="14" fill="white"/>
</clipPath>
</defs>
</svg>
